<mxfile host="app.diagrams.net" modified="2024-04-03T06:02:22.899Z" agent="Mozilla/5.0 (Windows NT 10.0; Win64; x64) AppleWebKit/537.36 (KHTML, like Gecko) Chrome/123.0.0.0 Safari/537.36" etag="4-v9C3u70hKsVkhB_za4" version="24.2.1" type="github">
  <diagram id="f106602c-feb2-e66a-4537-3a34d633f6aa" name="Page-1">
    <mxGraphModel dx="3514" dy="1945" grid="1" gridSize="10" guides="1" tooltips="1" connect="1" arrows="1" fold="1" page="1" pageScale="1" pageWidth="1169" pageHeight="827" background="none" math="0" shadow="0">
      <root>
        <mxCell id="0" />
        <mxCell id="1" parent="0" />
        <mxCell id="14" value="&lt;div style=&quot;text-align: justify;&quot;&gt;&lt;br&gt;&lt;/div&gt;" style="fillColor=#F6F6F6;strokeColor=none;shadow=0;gradientColor=none;fontSize=14;align=left;spacing=10;fontColor=#717171;9E9E9E;verticalAlign=top;spacingTop=-4;fontStyle=0;spacingLeft=40;html=1;container=0;" parent="1" vertex="1">
          <mxGeometry x="-555.5" y="-579" width="375" height="430" as="geometry" />
        </mxCell>
        <mxCell id="GypdRehjkYwasp8z_c5T-726" value="" style="dashed=0;outlineConnect=0;html=1;align=center;labelPosition=center;verticalLabelPosition=bottom;verticalAlign=top;shape=mxgraph.weblogos.github" parent="1" vertex="1">
          <mxGeometry x="-440" y="-560" width="40" height="37.5" as="geometry" />
        </mxCell>
        <mxCell id="GypdRehjkYwasp8z_c5T-720" value="" style="image;sketch=0;aspect=fixed;html=1;points=[];align=center;fontSize=12;image=img/lib/mscae/Docker.svg;" parent="1" vertex="1">
          <mxGeometry x="60" y="-290" width="146.34" height="120" as="geometry" />
        </mxCell>
        <mxCell id="GypdRehjkYwasp8z_c5T-729" value="&lt;div style=&quot;&quot;&gt;&lt;br&gt;&lt;/div&gt;" style="rounded=1;absoluteArcSize=1;arcSize=2;html=1;strokeColor=none;gradientColor=none;shadow=0;dashed=0;strokeColor=none;fontSize=12;fontColor=#9E9E9E;align=left;verticalAlign=top;spacing=10;spacingTop=-4;fillColor=#E1F5FE;" parent="1" vertex="1">
          <mxGeometry x="-556" y="10" width="1340" height="480" as="geometry" />
        </mxCell>
        <mxCell id="GypdRehjkYwasp8z_c5T-745" value="&lt;b style=&quot;text-align: left; text-wrap: nowrap; background-color: initial; color: rgb(113, 113, 113);&quot;&gt;&lt;font style=&quot;font-size: 23px;&quot;&gt;K8S Clustering(master node, worker 1 node, worker 2 node)&lt;/font&gt;&lt;/b&gt;" style="text;strokeColor=none;fillColor=none;html=1;align=center;verticalAlign=middle;whiteSpace=wrap;rounded=0;fontSize=16;" parent="1" vertex="1">
          <mxGeometry x="-228" y="20" width="680" height="40" as="geometry" />
        </mxCell>
        <mxCell id="GypdRehjkYwasp8z_c5T-751" value="" style="shape=image;html=1;verticalAlign=top;verticalLabelPosition=bottom;labelBackgroundColor=#ffffff;imageAspect=0;aspect=fixed;image=https://cdn2.iconfinder.com/data/icons/social-media-2285/512/1_Slack_colored_svg-128.png" parent="1" vertex="1">
          <mxGeometry x="60" y="-580" width="128" height="128" as="geometry" />
        </mxCell>
        <mxCell id="GypdRehjkYwasp8z_c5T-754" value="&lt;b&gt;&lt;font style=&quot;font-size: 14px;&quot;&gt;DEV&lt;/font&gt;&lt;/b&gt;" style="sketch=0;outlineConnect=0;gradientColor=none;fontColor=#545B64;strokeColor=none;fillColor=#879196;dashed=0;verticalLabelPosition=bottom;verticalAlign=top;align=center;html=1;fontSize=12;fontStyle=0;aspect=fixed;shape=mxgraph.aws4.illustration_desktop;pointerEvents=1" parent="1" vertex="1">
          <mxGeometry x="-910" y="-520" width="100" height="91" as="geometry" />
        </mxCell>
        <mxCell id="GypdRehjkYwasp8z_c5T-755" value="" style="group" parent="1" vertex="1" connectable="0">
          <mxGeometry x="-730" y="-480" width="80" height="80" as="geometry" />
        </mxCell>
        <mxCell id="GypdRehjkYwasp8z_c5T-733" value="" style="endArrow=classic;html=1;rounded=0;fontSize=12;startSize=8;endSize=8;curved=1;entryX=0;entryY=0.25;entryDx=0;entryDy=0;exitX=0.994;exitY=0.526;exitDx=0;exitDy=0;exitPerimeter=0;" parent="GypdRehjkYwasp8z_c5T-755" source="GypdRehjkYwasp8z_c5T-754" target="14" edge="1">
          <mxGeometry width="50" height="50" relative="1" as="geometry">
            <mxPoint x="-80" y="20" as="sourcePoint" />
            <mxPoint x="130" y="40" as="targetPoint" />
          </mxGeometry>
        </mxCell>
        <mxCell id="GypdRehjkYwasp8z_c5T-731" value="" style="image;aspect=fixed;html=1;points=[];align=center;fontSize=12;image=img/lib/azure2/general/Dev_Console.svg;rotation=0;" parent="GypdRehjkYwasp8z_c5T-755" vertex="1">
          <mxGeometry y="-14" width="50" height="40" as="geometry" />
        </mxCell>
        <mxCell id="GypdRehjkYwasp8z_c5T-806" value="Code 수정" style="text;html=1;align=center;verticalAlign=middle;whiteSpace=wrap;rounded=0;fontSize=16;" parent="GypdRehjkYwasp8z_c5T-755" vertex="1">
          <mxGeometry x="-17.5" y="27" width="85" height="40" as="geometry" />
        </mxCell>
        <mxCell id="GypdRehjkYwasp8z_c5T-758" value="" style="endArrow=classic;html=1;rounded=0;fontSize=12;startSize=8;endSize=8;curved=1;entryX=0;entryY=0.547;entryDx=0;entryDy=0;entryPerimeter=0;exitX=0.996;exitY=0.157;exitDx=0;exitDy=0;exitPerimeter=0;" parent="1" source="14" target="GypdRehjkYwasp8z_c5T-751" edge="1">
          <mxGeometry relative="1" as="geometry">
            <mxPoint x="-140" y="-510" as="sourcePoint" />
            <mxPoint x="-45" y="-500" as="targetPoint" />
          </mxGeometry>
        </mxCell>
        <mxCell id="GypdRehjkYwasp8z_c5T-759" value="" style="shape=message;html=1;outlineConnect=0;" parent="GypdRehjkYwasp8z_c5T-758" vertex="1">
          <mxGeometry width="50" height="34" relative="1" as="geometry">
            <mxPoint x="-27" y="-19" as="offset" />
          </mxGeometry>
        </mxCell>
        <mxCell id="GypdRehjkYwasp8z_c5T-768" value="" style="html=1;shadow=0;dashed=0;align=center;verticalAlign=middle;shape=mxgraph.arrows2.twoWayArrow;dy=0.65;dx=22;rotation=-180;" parent="1" vertex="1">
          <mxGeometry x="-724" y="198" width="140" height="60" as="geometry" />
        </mxCell>
        <mxCell id="GypdRehjkYwasp8z_c5T-786" value="" style="rounded=0;whiteSpace=wrap;html=1;fillColor=#fff2cc;strokeColor=#d6b656;" parent="1" vertex="1">
          <mxGeometry x="-500" y="73" width="290" height="370" as="geometry" />
        </mxCell>
        <mxCell id="GypdRehjkYwasp8z_c5T-774" value="" style="image;aspect=fixed;perimeter=ellipsePerimeter;html=1;align=center;shadow=0;dashed=0;spacingTop=3;image=img/lib/active_directory/web_server.svg;" parent="1" vertex="1">
          <mxGeometry x="-456" y="80.5" width="60" height="75" as="geometry" />
        </mxCell>
        <mxCell id="GypdRehjkYwasp8z_c5T-777" value="&lt;font style=&quot;font-size: 20px;&quot;&gt;Web server&lt;/font&gt;" style="text;html=1;align=center;verticalAlign=middle;whiteSpace=wrap;rounded=0;fontSize=16;" parent="1" vertex="1">
          <mxGeometry x="-396" y="88" width="116" height="50" as="geometry" />
        </mxCell>
        <mxCell id="GypdRehjkYwasp8z_c5T-781" value="" style="aspect=fixed;sketch=0;html=1;dashed=0;whitespace=wrap;fillColor=#2875E2;strokeColor=#ffffff;points=[[0.005,0.63,0],[0.1,0.2,0],[0.9,0.2,0],[0.5,0,0],[0.995,0.63,0],[0.72,0.99,0],[0.5,1,0],[0.28,0.99,0]];shape=mxgraph.kubernetes.icon2;kubernetesLabel=1;prIcon=pod" parent="1" vertex="1">
          <mxGeometry x="-446.98" y="186.75" width="57.3" height="55" as="geometry" />
        </mxCell>
        <mxCell id="GypdRehjkYwasp8z_c5T-783" value="&lt;font style=&quot;font-size: 20px;&quot;&gt;Myweb 1&lt;/font&gt;" style="text;html=1;align=center;verticalAlign=middle;whiteSpace=wrap;rounded=0;fontSize=16;" parent="1" vertex="1">
          <mxGeometry x="-389.68" y="196.75" width="100" height="35" as="geometry" />
        </mxCell>
        <mxCell id="GypdRehjkYwasp8z_c5T-784" value="&lt;font style=&quot;font-size: 20px;&quot;&gt;Myweb *&lt;/font&gt;" style="text;html=1;align=center;verticalAlign=middle;whiteSpace=wrap;rounded=0;fontSize=16;" parent="1" vertex="1">
          <mxGeometry x="-392.68" y="268" width="100" height="35" as="geometry" />
        </mxCell>
        <mxCell id="GypdRehjkYwasp8z_c5T-785" value="&lt;font style=&quot;font-size: 20px;&quot;&gt;...&lt;/font&gt;" style="text;html=1;align=center;verticalAlign=middle;whiteSpace=wrap;rounded=0;fontSize=16;" parent="1" vertex="1">
          <mxGeometry x="-389.68" y="233" width="100" height="35" as="geometry" />
        </mxCell>
        <mxCell id="GypdRehjkYwasp8z_c5T-787" value="" style="aspect=fixed;sketch=0;html=1;dashed=0;whitespace=wrap;fillColor=#2875E2;strokeColor=#ffffff;points=[[0.005,0.63,0],[0.1,0.2,0],[0.9,0.2,0],[0.5,0,0],[0.995,0.63,0],[0.72,0.99,0],[0.5,1,0],[0.28,0.99,0]];shape=mxgraph.kubernetes.icon2;kubernetesLabel=1;prIcon=pod" parent="1" vertex="1">
          <mxGeometry x="-446.98" y="258" width="57.3" height="55" as="geometry" />
        </mxCell>
        <mxCell id="GypdRehjkYwasp8z_c5T-788" value="" style="rounded=0;whiteSpace=wrap;html=1;fillColor=#fff2cc;strokeColor=#d6b656;" parent="1" vertex="1">
          <mxGeometry x="120" y="73" width="290" height="370" as="geometry" />
        </mxCell>
        <mxCell id="GypdRehjkYwasp8z_c5T-775" value="" style="image;aspect=fixed;html=1;points=[];align=center;fontSize=12;image=img/lib/azure2/management_governance/Metrics.svg;" parent="1" vertex="1">
          <mxGeometry x="144" y="85.5" width="60" height="65" as="geometry" />
        </mxCell>
        <mxCell id="GypdRehjkYwasp8z_c5T-779" value="&lt;font style=&quot;font-size: 20px;&quot;&gt;MetricBeat&lt;/font&gt;" style="text;html=1;align=center;verticalAlign=middle;whiteSpace=wrap;rounded=0;fontSize=16;" parent="1" vertex="1">
          <mxGeometry x="207.3" y="95.5" width="112.7" height="45" as="geometry" />
        </mxCell>
        <mxCell id="GypdRehjkYwasp8z_c5T-789" value="" style="aspect=fixed;sketch=0;html=1;dashed=0;whitespace=wrap;fillColor=#2875E2;strokeColor=#ffffff;points=[[0.005,0.63,0],[0.1,0.2,0],[0.9,0.2,0],[0.5,0,0],[0.995,0.63,0],[0.72,0.99,0],[0.5,1,0],[0.28,0.99,0]];shape=mxgraph.kubernetes.icon2;kubernetesLabel=1;prIcon=pod" parent="1" vertex="1">
          <mxGeometry x="150" y="186.75" width="57.3" height="55" as="geometry" />
        </mxCell>
        <mxCell id="GypdRehjkYwasp8z_c5T-790" value="&lt;span style=&quot;font-size: 20px;&quot;&gt;metricbeat 1&lt;/span&gt;" style="text;html=1;align=center;verticalAlign=middle;whiteSpace=wrap;rounded=0;fontSize=16;" parent="1" vertex="1">
          <mxGeometry x="207.3" y="196.75" width="122.7" height="35" as="geometry" />
        </mxCell>
        <mxCell id="GypdRehjkYwasp8z_c5T-791" value="" style="aspect=fixed;sketch=0;html=1;dashed=0;whitespace=wrap;fillColor=#2875E2;strokeColor=#ffffff;points=[[0.005,0.63,0],[0.1,0.2,0],[0.9,0.2,0],[0.5,0,0],[0.995,0.63,0],[0.72,0.99,0],[0.5,1,0],[0.28,0.99,0]];shape=mxgraph.kubernetes.icon2;kubernetesLabel=1;prIcon=pod" parent="1" vertex="1">
          <mxGeometry x="150" y="266.75" width="57.3" height="55" as="geometry" />
        </mxCell>
        <mxCell id="GypdRehjkYwasp8z_c5T-792" value="&lt;span style=&quot;font-size: 20px;&quot;&gt;metricbeat 2&lt;/span&gt;" style="text;html=1;align=center;verticalAlign=middle;whiteSpace=wrap;rounded=0;fontSize=16;" parent="1" vertex="1">
          <mxGeometry x="207.3" y="276.75" width="122.7" height="35" as="geometry" />
        </mxCell>
        <mxCell id="GypdRehjkYwasp8z_c5T-798" value="" style="rounded=0;whiteSpace=wrap;html=1;fillColor=#fff2cc;strokeColor=#d6b656;" parent="1" vertex="1">
          <mxGeometry x="-190" y="73" width="290" height="370" as="geometry" />
        </mxCell>
        <mxCell id="GypdRehjkYwasp8z_c5T-771" value="" style="sketch=0;points=[[0,0,0],[0.25,0,0],[0.5,0,0],[0.75,0,0],[1,0,0],[0,1,0],[0.25,1,0],[0.5,1,0],[0.75,1,0],[1,1,0],[0,0.25,0],[0,0.5,0],[0,0.75,0],[1,0.25,0],[1,0.5,0],[1,0.75,0]];outlineConnect=0;fontColor=#232F3E;fillColor=#8C4FFF;strokeColor=#ffffff;dashed=0;verticalLabelPosition=bottom;verticalAlign=top;align=center;html=1;fontSize=12;fontStyle=0;aspect=fixed;shape=mxgraph.aws4.resourceIcon;resIcon=mxgraph.aws4.elasticsearch_service;" parent="1" vertex="1">
          <mxGeometry x="-170" y="85.5" width="65" height="65" as="geometry" />
        </mxCell>
        <mxCell id="GypdRehjkYwasp8z_c5T-778" value="&lt;font style=&quot;font-size: 20px;&quot;&gt;ElasticSearch&lt;/font&gt;" style="text;html=1;align=center;verticalAlign=middle;whiteSpace=wrap;rounded=0;fontSize=16;" parent="1" vertex="1">
          <mxGeometry x="-102.69999999999999" y="100.5" width="150" height="45" as="geometry" />
        </mxCell>
        <mxCell id="GypdRehjkYwasp8z_c5T-799" value="" style="aspect=fixed;sketch=0;html=1;dashed=0;whitespace=wrap;fillColor=#2875E2;strokeColor=#ffffff;points=[[0.005,0.63,0],[0.1,0.2,0],[0.9,0.2,0],[0.5,0,0],[0.995,0.63,0],[0.72,0.99,0],[0.5,1,0],[0.28,0.99,0]];shape=mxgraph.kubernetes.icon2;kubernetesLabel=1;prIcon=pod" parent="1" vertex="1">
          <mxGeometry x="-160" y="186.75" width="57.3" height="55" as="geometry" />
        </mxCell>
        <mxCell id="GypdRehjkYwasp8z_c5T-800" value="&lt;span style=&quot;font-size: 20px;&quot;&gt;ElasticSearch&lt;/span&gt;" style="text;html=1;align=center;verticalAlign=middle;whiteSpace=wrap;rounded=0;fontSize=16;" parent="1" vertex="1">
          <mxGeometry x="-102.69999999999999" y="196.75" width="132.7" height="35" as="geometry" />
        </mxCell>
        <mxCell id="GypdRehjkYwasp8z_c5T-801" value="" style="rounded=0;whiteSpace=wrap;html=1;fillColor=#fff2cc;strokeColor=#d6b656;" parent="1" vertex="1">
          <mxGeometry x="430" y="73" width="290" height="370" as="geometry" />
        </mxCell>
        <mxCell id="GypdRehjkYwasp8z_c5T-772" value="" style="outlineConnect=0;dashed=0;verticalLabelPosition=bottom;verticalAlign=top;align=center;html=1;shape=mxgraph.aws3.mysql_db_instance;fillColor=#2E73B8;gradientColor=none;" parent="1" vertex="1">
          <mxGeometry x="450" y="85.5" width="60" height="65" as="geometry" />
        </mxCell>
        <mxCell id="GypdRehjkYwasp8z_c5T-780" value="&lt;font style=&quot;font-size: 20px;&quot;&gt;DB&lt;/font&gt;" style="text;html=1;align=center;verticalAlign=middle;whiteSpace=wrap;rounded=0;fontSize=16;" parent="1" vertex="1">
          <mxGeometry x="530" y="95.5" width="60" height="45" as="geometry" />
        </mxCell>
        <mxCell id="GypdRehjkYwasp8z_c5T-802" value="" style="aspect=fixed;sketch=0;html=1;dashed=0;whitespace=wrap;fillColor=#2875E2;strokeColor=#ffffff;points=[[0.005,0.63,0],[0.1,0.2,0],[0.9,0.2,0],[0.5,0,0],[0.995,0.63,0],[0.72,0.99,0],[0.5,1,0],[0.28,0.99,0]];shape=mxgraph.kubernetes.icon2;kubernetesLabel=1;prIcon=pod" parent="1" vertex="1">
          <mxGeometry x="440" y="186.75" width="57.3" height="55" as="geometry" />
        </mxCell>
        <mxCell id="GypdRehjkYwasp8z_c5T-803" value="&lt;span style=&quot;font-size: 20px;&quot;&gt;MySQL&lt;/span&gt;" style="text;html=1;align=center;verticalAlign=middle;whiteSpace=wrap;rounded=0;fontSize=16;" parent="1" vertex="1">
          <mxGeometry x="497.3" y="196.75" width="92.7" height="41.25" as="geometry" />
        </mxCell>
        <mxCell id="GypdRehjkYwasp8z_c5T-804" value="" style="group" parent="1" vertex="1" connectable="0">
          <mxGeometry x="-910" y="120" width="170" height="250" as="geometry" />
        </mxCell>
        <mxCell id="GypdRehjkYwasp8z_c5T-741" value="" style="outlineConnect=0;dashed=0;verticalLabelPosition=bottom;verticalAlign=top;align=center;html=1;shape=mxgraph.aws3.volume;fillColor=#0000FF;gradientColor=none;" parent="GypdRehjkYwasp8z_c5T-804" vertex="1">
          <mxGeometry x="15" width="140" height="190" as="geometry" />
        </mxCell>
        <mxCell id="GypdRehjkYwasp8z_c5T-770" value="&lt;div style=&quot;text-align: left;&quot;&gt;&lt;span style=&quot;background-color: initial; font-size: 23px; text-wrap: nowrap;&quot;&gt;&lt;font color=&quot;#717171&quot;&gt;&lt;b&gt;Storage Node&lt;/b&gt;&lt;/font&gt;&lt;/span&gt;&lt;/div&gt;" style="text;strokeColor=none;fillColor=none;html=1;align=center;verticalAlign=middle;whiteSpace=wrap;rounded=0;fontSize=16;" parent="GypdRehjkYwasp8z_c5T-804" vertex="1">
          <mxGeometry y="210" width="170" height="40" as="geometry" />
        </mxCell>
        <mxCell id="GypdRehjkYwasp8z_c5T-807" value="&lt;b style=&quot;forced-color-adjust: none; font-family: Helvetica; font-size: 16px; font-style: normal; font-variant-ligatures: normal; font-variant-caps: normal; letter-spacing: normal; orphans: 2; text-indent: 0px; text-transform: none; widows: 2; word-spacing: 0px; -webkit-text-stroke-width: 0px; white-space: nowrap; background-color: initial; text-decoration-thickness: initial; text-decoration-style: initial; text-decoration-color: initial; text-align: left; color: rgb(113, 113, 113);&quot;&gt;&lt;font style=&quot;forced-color-adjust: none; font-size: 23px;&quot;&gt;GitHub&lt;/font&gt;&lt;/b&gt;" style="text;whiteSpace=wrap;html=1;" parent="1" vertex="1">
          <mxGeometry x="-395" y="-560" width="80" height="40" as="geometry" />
        </mxCell>
        <mxCell id="GypdRehjkYwasp8z_c5T-808" value="" style="dashed=0;outlineConnect=0;html=1;align=center;labelPosition=center;verticalLabelPosition=bottom;verticalAlign=top;shape=mxgraph.weblogos.chrome" parent="1" vertex="1">
          <mxGeometry x="-434.47999999999996" y="115.5" width="44.8" height="40" as="geometry" />
        </mxCell>
        <mxCell id="GypdRehjkYwasp8z_c5T-819" value="1. 개발자의 코드 업데이트 후 Commit &amp;amp; push" style="text;html=1;align=center;verticalAlign=middle;whiteSpace=wrap;rounded=0;fontSize=16;" parent="1" vertex="1">
          <mxGeometry x="-910" y="-387" width="330" height="30" as="geometry" />
        </mxCell>
        <mxCell id="GypdRehjkYwasp8z_c5T-820" value="2. Slack으로 Commit 알람 전송" style="text;html=1;align=center;verticalAlign=middle;whiteSpace=wrap;rounded=0;fontSize=16;" parent="1" vertex="1">
          <mxGeometry x="-157.5" y="-480" width="165" height="40" as="geometry" />
        </mxCell>
        <mxCell id="GypdRehjkYwasp8z_c5T-821" style="edgeStyle=none;curved=1;rounded=0;orthogonalLoop=1;jettySize=auto;html=1;exitX=1;exitY=0.5;exitDx=0;exitDy=0;fontSize=12;startSize=8;endSize=8;" parent="1" source="GypdRehjkYwasp8z_c5T-820" target="GypdRehjkYwasp8z_c5T-820" edge="1">
          <mxGeometry relative="1" as="geometry" />
        </mxCell>
        <mxCell id="GypdRehjkYwasp8z_c5T-822" value="4. Test 배포 진행 요청" style="text;html=1;align=center;verticalAlign=middle;whiteSpace=wrap;rounded=0;fontSize=16;" parent="1" vertex="1">
          <mxGeometry x="200" y="-510" width="165" height="40" as="geometry" />
        </mxCell>
        <mxCell id="GypdRehjkYwasp8z_c5T-826" value="5. Test Docker image push" style="text;html=1;align=center;verticalAlign=middle;whiteSpace=wrap;rounded=0;fontSize=16;" parent="1" vertex="1">
          <mxGeometry x="205" y="-340" width="205" height="40" as="geometry" />
        </mxCell>
        <mxCell id="GypdRehjkYwasp8z_c5T-833" value="6. Test Docker image pull 실행 요청" style="text;html=1;align=center;verticalAlign=middle;whiteSpace=wrap;rounded=0;fontSize=16;" parent="1" vertex="1">
          <mxGeometry x="392" y="-120" width="270" height="40" as="geometry" />
        </mxCell>
        <mxCell id="GypdRehjkYwasp8z_c5T-835" value="7. Test Docker image pull" style="text;html=1;align=center;verticalAlign=middle;whiteSpace=wrap;rounded=0;fontSize=16;" parent="1" vertex="1">
          <mxGeometry x="-110.00000000000001" y="-110" width="210" height="40" as="geometry" />
        </mxCell>
        <mxCell id="Ns4UWQavqec5QjSnQfz8-16" value="" style="aspect=fixed;sketch=0;html=1;dashed=0;whitespace=wrap;fillColor=#2875E2;strokeColor=#ffffff;points=[[0.005,0.63,0],[0.1,0.2,0],[0.9,0.2,0],[0.5,0,0],[0.995,0.63,0],[0.72,0.99,0],[0.5,1,0],[0.28,0.99,0]];shape=mxgraph.kubernetes.icon2;kubernetesLabel=1;prIcon=pv" parent="1" vertex="1">
          <mxGeometry x="-706.08" y="95.5" width="104.17" height="100" as="geometry" />
        </mxCell>
        <mxCell id="Ns4UWQavqec5QjSnQfz8-17" value="" style="aspect=fixed;sketch=0;html=1;dashed=0;whitespace=wrap;fillColor=#2875E2;strokeColor=#ffffff;points=[[0.005,0.63,0],[0.1,0.2,0],[0.9,0.2,0],[0.5,0,0],[0.995,0.63,0],[0.72,0.99,0],[0.5,1,0],[0.28,0.99,0]];shape=mxgraph.kubernetes.icon2;kubernetesLabel=1;prIcon=pvc" parent="1" vertex="1">
          <mxGeometry x="-706.08" y="250" width="104.17" height="100" as="geometry" />
        </mxCell>
        <mxCell id="Ns4UWQavqec5QjSnQfz8-26" value="Toy_project_02" style="text;html=1;align=center;verticalAlign=middle;whiteSpace=wrap;rounded=0;fontSize=16;" parent="1" vertex="1">
          <mxGeometry x="-437.5" y="-501" width="124.48" height="32" as="geometry" />
        </mxCell>
        <mxCell id="Ns4UWQavqec5QjSnQfz8-33" value="" style="group" parent="1" vertex="1" connectable="0">
          <mxGeometry x="-436.02" y="-466" width="97.48000000000002" height="30" as="geometry" />
        </mxCell>
        <mxCell id="Ns4UWQavqec5QjSnQfz8-27" value="&lt;div&gt;Dockerfile&lt;/div&gt;" style="text;html=1;align=center;verticalAlign=middle;whiteSpace=wrap;rounded=0;fontSize=16;" parent="Ns4UWQavqec5QjSnQfz8-33" vertex="1">
          <mxGeometry x="13" width="84.48" height="30" as="geometry" />
        </mxCell>
        <mxCell id="Ns4UWQavqec5QjSnQfz8-32" value="" style="shape=waypoint;sketch=0;fillStyle=solid;size=6;pointerEvents=1;points=[];fillColor=none;resizable=0;rotatable=0;perimeter=centerPerimeter;snapToPoint=1;" parent="Ns4UWQavqec5QjSnQfz8-33" vertex="1">
          <mxGeometry y="5" width="20" height="20" as="geometry" />
        </mxCell>
        <mxCell id="Ns4UWQavqec5QjSnQfz8-36" value="" style="shape=ext;double=1;rounded=1;whiteSpace=wrap;html=1;fillColor=none;" parent="1" vertex="1">
          <mxGeometry x="-486" y="-354" width="226" height="174" as="geometry" />
        </mxCell>
        <mxCell id="Ns4UWQavqec5QjSnQfz8-35" value="" style="image;aspect=fixed;html=1;points=[];align=center;fontSize=12;image=img/lib/azure2/general/Folder_Blank.svg;" parent="1" vertex="1">
          <mxGeometry x="-500" y="-364" width="49.29" height="40" as="geometry" />
        </mxCell>
        <mxCell id="Ns4UWQavqec5QjSnQfz8-37" value="" style="group" parent="1" vertex="1" connectable="0">
          <mxGeometry x="410" y="-580" width="420" height="440" as="geometry" />
        </mxCell>
        <mxCell id="GypdRehjkYwasp8z_c5T-730" value="" style="rounded=1;absoluteArcSize=1;arcSize=2;html=1;strokeColor=#b85450;shadow=0;dashed=0;strokeColor=none;fontSize=12;align=left;verticalAlign=top;spacing=10;spacingTop=-4;fillColor=#f8cecc;" parent="Ns4UWQavqec5QjSnQfz8-37" vertex="1">
          <mxGeometry width="420" height="440" as="geometry" />
        </mxCell>
        <mxCell id="GypdRehjkYwasp8z_c5T-793" value="&lt;b style=&quot;forced-color-adjust: none; font-family: Helvetica; font-size: 16px; font-style: normal; font-variant-ligatures: normal; font-variant-caps: normal; letter-spacing: normal; orphans: 2; text-indent: 0px; text-transform: none; widows: 2; word-spacing: 0px; -webkit-text-stroke-width: 0px; white-space: nowrap; background-color: initial; text-decoration-thickness: initial; text-decoration-style: initial; text-decoration-color: initial; text-align: left; color: rgb(113, 113, 113);&quot;&gt;&lt;font style=&quot;forced-color-adjust: none; font-size: 23px;&quot;&gt;Jenkins Node&lt;/font&gt;&lt;/b&gt;" style="text;whiteSpace=wrap;html=1;" parent="Ns4UWQavqec5QjSnQfz8-37" vertex="1">
          <mxGeometry x="134.59459459459458" y="7.232558139534884" width="160.8108108108108" height="51.162790697674424" as="geometry" />
        </mxCell>
        <mxCell id="GypdRehjkYwasp8z_c5T-809" value="PipeLine" style="swimlane;whiteSpace=wrap;html=1;" parent="Ns4UWQavqec5QjSnQfz8-37" vertex="1">
          <mxGeometry x="35" y="51.162790697674424" width="350" height="358.13953488372096" as="geometry" />
        </mxCell>
        <mxCell id="GypdRehjkYwasp8z_c5T-811" value="Checkout GitHub" style="whiteSpace=wrap;html=1;" parent="GypdRehjkYwasp8z_c5T-809" vertex="1">
          <mxGeometry x="18.91891891891892" y="40.93023255813954" width="312.16216216216213" height="51.162790697674424" as="geometry" />
        </mxCell>
        <mxCell id="GypdRehjkYwasp8z_c5T-812" value="Docker image build&amp;nbsp;" style="whiteSpace=wrap;html=1;" parent="GypdRehjkYwasp8z_c5T-809" vertex="1">
          <mxGeometry x="18.91891891891892" y="122.79069767441861" width="312.16216216216213" height="51.162790697674424" as="geometry" />
        </mxCell>
        <mxCell id="GypdRehjkYwasp8z_c5T-813" value="Docker image push" style="whiteSpace=wrap;html=1;" parent="GypdRehjkYwasp8z_c5T-809" vertex="1">
          <mxGeometry x="18.91891891891892" y="204.6511627906977" width="312.16216216216213" height="51.162790697674424" as="geometry" />
        </mxCell>
        <mxCell id="GypdRehjkYwasp8z_c5T-814" value="Docker image pull (Ansible Playbook)" style="whiteSpace=wrap;html=1;" parent="GypdRehjkYwasp8z_c5T-809" vertex="1">
          <mxGeometry x="18.91891891891892" y="286.51162790697674" width="312.16216216216213" height="51.162790697674424" as="geometry" />
        </mxCell>
        <mxCell id="GypdRehjkYwasp8z_c5T-815" value="" style="edgeStyle=none;orthogonalLoop=1;jettySize=auto;html=1;rounded=0;fontSize=12;startSize=8;endSize=8;curved=1;exitX=0.5;exitY=1;exitDx=0;exitDy=0;" parent="GypdRehjkYwasp8z_c5T-809" source="GypdRehjkYwasp8z_c5T-811" target="GypdRehjkYwasp8z_c5T-812" edge="1">
          <mxGeometry width="140" relative="1" as="geometry">
            <mxPoint x="189.1891891891892" y="266.04651162790697" as="sourcePoint" />
            <mxPoint x="321.6216216216216" y="266.04651162790697" as="targetPoint" />
            <Array as="points" />
          </mxGeometry>
        </mxCell>
        <mxCell id="GypdRehjkYwasp8z_c5T-816" value="" style="edgeStyle=none;orthogonalLoop=1;jettySize=auto;html=1;rounded=0;fontSize=12;startSize=8;endSize=8;curved=1;exitX=0.5;exitY=1;exitDx=0;exitDy=0;entryX=0.5;entryY=0;entryDx=0;entryDy=0;" parent="GypdRehjkYwasp8z_c5T-809" source="GypdRehjkYwasp8z_c5T-812" target="GypdRehjkYwasp8z_c5T-813" edge="1">
          <mxGeometry width="140" relative="1" as="geometry">
            <mxPoint x="184.45945945945945" y="102.32558139534885" as="sourcePoint" />
            <mxPoint x="184.45945945945945" y="133.02325581395348" as="targetPoint" />
            <Array as="points" />
          </mxGeometry>
        </mxCell>
        <mxCell id="GypdRehjkYwasp8z_c5T-817" value="" style="edgeStyle=none;orthogonalLoop=1;jettySize=auto;html=1;rounded=0;fontSize=12;startSize=8;endSize=8;curved=1;exitX=0.5;exitY=1;exitDx=0;exitDy=0;entryX=0.5;entryY=0;entryDx=0;entryDy=0;" parent="GypdRehjkYwasp8z_c5T-809" source="GypdRehjkYwasp8z_c5T-813" target="GypdRehjkYwasp8z_c5T-814" edge="1">
          <mxGeometry width="140" relative="1" as="geometry">
            <mxPoint x="184.45945945945945" y="184.18604651162792" as="sourcePoint" />
            <mxPoint x="184.45945945945945" y="214.88372093023256" as="targetPoint" />
            <Array as="points" />
          </mxGeometry>
        </mxCell>
        <mxCell id="Ns4UWQavqec5QjSnQfz8-38" value="deploy" style="text;html=1;align=center;verticalAlign=middle;whiteSpace=wrap;rounded=0;fontSize=16;" parent="1" vertex="1">
          <mxGeometry x="-405.26" y="-344" width="60" height="30" as="geometry" />
        </mxCell>
        <mxCell id="Ns4UWQavqec5QjSnQfz8-34" value="" style="shape=ext;double=1;rounded=1;whiteSpace=wrap;html=1;fillColor=none;" parent="1" vertex="1">
          <mxGeometry x="-486" y="-510" width="220" height="120" as="geometry" />
        </mxCell>
        <mxCell id="Ns4UWQavqec5QjSnQfz8-47" value="" style="group" parent="1" vertex="1" connectable="0">
          <mxGeometry x="-430" y="-314" width="97.48000000000002" height="30" as="geometry" />
        </mxCell>
        <mxCell id="Ns4UWQavqec5QjSnQfz8-48" value="React" style="text;html=1;align=center;verticalAlign=middle;whiteSpace=wrap;rounded=0;fontSize=16;" parent="Ns4UWQavqec5QjSnQfz8-47" vertex="1">
          <mxGeometry x="9" width="84.48" height="30" as="geometry" />
        </mxCell>
        <mxCell id="Ns4UWQavqec5QjSnQfz8-49" value="" style="shape=waypoint;sketch=0;fillStyle=solid;size=6;pointerEvents=1;points=[];fillColor=none;resizable=0;rotatable=0;perimeter=centerPerimeter;snapToPoint=1;" parent="Ns4UWQavqec5QjSnQfz8-47" vertex="1">
          <mxGeometry y="5" width="20" height="20" as="geometry" />
        </mxCell>
        <mxCell id="Ns4UWQavqec5QjSnQfz8-52" value="" style="group" parent="1" vertex="1" connectable="0">
          <mxGeometry x="-430" y="-284" width="97.48000000000002" height="30" as="geometry" />
        </mxCell>
        <mxCell id="Ns4UWQavqec5QjSnQfz8-53" value="&lt;div&gt;Django&lt;/div&gt;" style="text;html=1;align=center;verticalAlign=middle;whiteSpace=wrap;rounded=0;fontSize=16;" parent="Ns4UWQavqec5QjSnQfz8-52" vertex="1">
          <mxGeometry x="13" width="84.48" height="30" as="geometry" />
        </mxCell>
        <mxCell id="Ns4UWQavqec5QjSnQfz8-54" value="" style="shape=waypoint;sketch=0;fillStyle=solid;size=6;pointerEvents=1;points=[];fillColor=none;resizable=0;rotatable=0;perimeter=centerPerimeter;snapToPoint=1;" parent="Ns4UWQavqec5QjSnQfz8-52" vertex="1">
          <mxGeometry y="5" width="20" height="20" as="geometry" />
        </mxCell>
        <mxCell id="Ns4UWQavqec5QjSnQfz8-61" style="edgeStyle=none;curved=1;rounded=0;orthogonalLoop=1;jettySize=auto;html=1;exitX=1;exitY=0.75;exitDx=0;exitDy=0;fontSize=12;startSize=8;endSize=8;" parent="1" source="Ns4UWQavqec5QjSnQfz8-34" target="Ns4UWQavqec5QjSnQfz8-34" edge="1">
          <mxGeometry relative="1" as="geometry" />
        </mxCell>
        <mxCell id="Ns4UWQavqec5QjSnQfz8-25" value="" style="verticalLabelPosition=bottom;html=1;verticalAlign=top;align=center;strokeColor=none;fillColor=#00BEF2;shape=mxgraph.azure.git_repository;" parent="1" vertex="1">
          <mxGeometry x="-500" y="-522.5" width="50" height="50" as="geometry" />
        </mxCell>
        <mxCell id="Ns4UWQavqec5QjSnQfz8-62" value="" style="aspect=fixed;sketch=0;html=1;dashed=0;whitespace=wrap;fillColor=#2875E2;strokeColor=#ffffff;points=[[0.005,0.63,0],[0.1,0.2,0],[0.9,0.2,0],[0.5,0,0],[0.995,0.63,0],[0.72,0.99,0],[0.5,1,0],[0.28,0.99,0]];shape=mxgraph.kubernetes.icon2;prIcon=svc" parent="1" vertex="1">
          <mxGeometry x="-268" y="17" width="50" height="48" as="geometry" />
        </mxCell>
        <mxCell id="Ns4UWQavqec5QjSnQfz8-63" value="Hub" style="text;html=1;align=center;verticalAlign=middle;whiteSpace=wrap;rounded=0;fontSize=24;strokeWidth=1;fontStyle=1" parent="1" vertex="1">
          <mxGeometry x="106.17" y="-167" width="60" height="30" as="geometry" />
        </mxCell>
        <mxCell id="Ns4UWQavqec5QjSnQfz8-64" value="Slack" style="text;html=1;align=center;verticalAlign=middle;whiteSpace=wrap;rounded=0;fontSize=24;strokeWidth=1;fontStyle=1" parent="1" vertex="1">
          <mxGeometry x="80.17" y="-447.5" width="86" height="28.5" as="geometry" />
        </mxCell>
        <mxCell id="Ns4UWQavqec5QjSnQfz8-66" value="7. 정상적인 Test 배포 확인" style="text;html=1;align=center;verticalAlign=middle;whiteSpace=wrap;rounded=0;fontSize=16;fontColor=#000000;" parent="1" vertex="1">
          <mxGeometry x="13.170000000000002" y="-379" width="220" height="30" as="geometry" />
        </mxCell>
        <mxCell id="GypdRehjkYwasp8z_c5T-824" value="" style="edgeStyle=elbowEdgeStyle;elbow=horizontal;endArrow=classic;html=1;curved=0;rounded=0;endSize=8;startSize=8;fontSize=12;exitX=1;exitY=0.5;exitDx=0;exitDy=0;entryX=0;entryY=0.5;entryDx=0;entryDy=0;" parent="1" source="GypdRehjkYwasp8z_c5T-751" target="GypdRehjkYwasp8z_c5T-811" edge="1">
          <mxGeometry width="50" height="50" relative="1" as="geometry">
            <mxPoint x="260" y="-388" as="sourcePoint" />
            <mxPoint x="310" y="-438" as="targetPoint" />
            <Array as="points">
              <mxPoint x="370" y="-480" />
            </Array>
          </mxGeometry>
        </mxCell>
        <mxCell id="GypdRehjkYwasp8z_c5T-825" value="" style="edgeStyle=elbowEdgeStyle;elbow=horizontal;endArrow=classic;html=1;curved=0;rounded=0;endSize=8;startSize=8;fontSize=12;exitX=0;exitY=0.5;exitDx=0;exitDy=0;entryX=1.005;entryY=0.215;entryDx=0;entryDy=0;entryPerimeter=0;" parent="1" source="GypdRehjkYwasp8z_c5T-813" target="GypdRehjkYwasp8z_c5T-720" edge="1">
          <mxGeometry width="50" height="50" relative="1" as="geometry">
            <mxPoint x="290" y="-320" as="sourcePoint" />
            <mxPoint x="340" y="-370" as="targetPoint" />
            <Array as="points">
              <mxPoint x="390" y="-270" />
            </Array>
          </mxGeometry>
        </mxCell>
        <mxCell id="Ns4UWQavqec5QjSnQfz8-70" value="9. 실제 배포 진행 요청" style="text;html=1;align=center;verticalAlign=middle;whiteSpace=wrap;rounded=0;fontSize=16;" parent="1" vertex="1">
          <mxGeometry x="200" y="-480" width="165" height="40" as="geometry" />
        </mxCell>
        <mxCell id="Ns4UWQavqec5QjSnQfz8-72" value="10. Docker image push" style="text;html=1;align=center;verticalAlign=middle;whiteSpace=wrap;rounded=0;fontSize=16;" parent="1" vertex="1">
          <mxGeometry x="200" y="-310" width="185" height="40" as="geometry" />
        </mxCell>
        <mxCell id="Ns4UWQavqec5QjSnQfz8-73" value="" style="edgeStyle=segmentEdgeStyle;endArrow=classic;html=1;curved=0;rounded=0;endSize=8;startSize=8;fontSize=12;entryX=0.656;entryY=0;entryDx=0;entryDy=0;entryPerimeter=0;exitX=0;exitY=0.5;exitDx=0;exitDy=0;" parent="1" source="GypdRehjkYwasp8z_c5T-814" target="GypdRehjkYwasp8z_c5T-729" edge="1">
          <mxGeometry width="50" height="50" relative="1" as="geometry">
            <mxPoint x="340" y="-210" as="sourcePoint" />
            <mxPoint x="390" y="-260" as="targetPoint" />
          </mxGeometry>
        </mxCell>
        <mxCell id="Ns4UWQavqec5QjSnQfz8-75" value="11. Docker image pull 실행 요청" style="text;html=1;align=center;verticalAlign=middle;whiteSpace=wrap;rounded=0;fontSize=16;" parent="1" vertex="1">
          <mxGeometry x="383.72" y="-80" width="250" height="40" as="geometry" />
        </mxCell>
        <mxCell id="Ns4UWQavqec5QjSnQfz8-76" value="" style="edgeStyle=segmentEdgeStyle;endArrow=classic;html=1;curved=0;rounded=0;endSize=8;startSize=8;fontSize=12;exitX=-0.012;exitY=0.546;exitDx=0;exitDy=0;exitPerimeter=0;entryX=0.326;entryY=-0.001;entryDx=0;entryDy=0;entryPerimeter=0;" parent="1" source="GypdRehjkYwasp8z_c5T-720" target="GypdRehjkYwasp8z_c5T-729" edge="1">
          <mxGeometry width="50" height="50" relative="1" as="geometry">
            <mxPoint x="80" y="-130" as="sourcePoint" />
            <mxPoint x="130" y="-180" as="targetPoint" />
          </mxGeometry>
        </mxCell>
        <mxCell id="Ns4UWQavqec5QjSnQfz8-77" value="12. Docker image pull" style="text;html=1;align=center;verticalAlign=middle;whiteSpace=wrap;rounded=0;fontSize=16;" parent="1" vertex="1">
          <mxGeometry x="-115.83" y="-71" width="191" height="40" as="geometry" />
        </mxCell>
        <mxCell id="Ns4UWQavqec5QjSnQfz8-78" value="" style="shape=image;imageAspect=0;aspect=fixed;verticalLabelPosition=bottom;verticalAlign=top;image=data:image/png,iVBORw0KGgoAAAANSUhEUgAAAbQAAAEsCAYAAACrAUZoAAAAAXNSR0IArs4c6QAAAARnQU1BAACxjwv8YQUAAAAJcEhZcwAAEnQAABJ0Ad5mH3gAAErySURBVHhe7Z0JvJXT+sfde40ZMmYsyVQqITJV6ipTGcpYpkRmypy/ypQpYzKXJAlXN5UpUZSQUIhQKSlNSGR2713/z3e1X/Z5zzrn7Pfsvd/9Dr/v5/N87tU55937nZ7fWs96nmetZoQQQogEIEETQgiRCCRoQgghEoEETQghRCKQoAkhhEgEEjQhhBCJQIImRAH573//a3777Tfzww8/mG+//dYsWbLEfPnll2b27Nnm448/Nh9++KF55513KrSpU6eaadOmmRkzZphPP/3UzJ071yxcuNB8/fXXZsWKFeann34yf/zxR+bThBDZSNCEqAa///67Fa2lS5eaefPmWQGaMmWKmTBhghk9erR55JFHzF133WX69u1revbsac477zxz6qmnms6dO5v27dubdu3aOe2www4zHTt2NCeddJI544wzTI8ePUzv3r1Nv379zP3332+GDx9uxo4da15//XXz7rvvms8++8wKHuL566+/mv/973+ZbyhE+pCgCVEF//nPf+zMaNmyZXbG9P7771vhevzxx63QIDrHHnus2W+//UyDBg1M3bp1zcYbb2zWWmsts9pqq5m///3v5m9/+9ufxr9VZtm/69k//vEPs95665ktttjC7LjjjqZJkyambdu25vTTTze9evUy9913n3n++eetqH7yySdmwYIF5rvvvrOzRYmcSAsSNCF8IAA///yzDfMhYIQBR44cacXrzDPPNC1btjQ77LCD2WSTTcwaa6zhFKWwrUaNGqZOnTpml112MR06dDCXX365efjhh8348eNtqJNZHCFLZpYSOJFUJGgi9eDgmYWtXLnSrnnNmjXLvPDCC+bmm282J5xwgqlfv77ZdNNNIyNeudoGG2xgtt56a9O6dWs7ixw8eLB56623zPz58xWiFIlEgiZSiSdiXiiRBAzWp7p372723ntvG9pbffXVnUIRRyNsuc4665h69eqZo446ys42J06cqNCkSBQSNJEqvCxEwm9kHrIO1rVrV7Pzzjubdddd1ykGSbQ111zTzt7atGljrr32WjNp0iQbYkXgEXoh4ogETSQeZh4IGetHOG0SOi6++GLTsGFDs/baazsdfpqMmeiWW25psyxJLmG2+ssvv1hh49pp5ibiggRNJBbPGVO3RXIHae9kBpLMQQjO5dzTbogbWZokv7z22ms2Oca7jhI2EXUkaCKx4Izffvttc8UVV5hGjRrZTEBS6F2OXPaXIfYkwNSqVcuGJAcNGmS++eYbO8sVIspI0ETi+P77722WImtj1GyxNkYdl8t5yyo2hI0ZW82aNU2zZs1soThJJFpjE1FFgiYSA0L23HPP2Y4c1IkhZJqRFcYQto022sgWj99+++1mzpw5dk1SiCghQROxh9AiBcRnnXWWLSxef/31JWRFMi8UecABB5i7777brk2qt6SIChI0EVtIUmCN7KKLLjJNmza1MwiFFsMx0v5r165tDj30UDNw4EDz1VdfZe6KEKVDgiZiCSGvW265xXbBYMaQpCLoOBllD6xTEuYdM2aMWb58eeYOCRE+EjQRG5iR/fjjj7ajB82At9122z8bAMtKZySPkDiyzz77mD59+thdACheFyJsJGgiFpCAwD5hNN1t3LixTfhQLVm0jPU1wpA0R6ZvJBmRQoSJBE1EGmqf6O4xZMgQ24OQJsEuZyqLjlHvx/Y2l112mXnzzTc1WxOhIUETkYX2S9OnTzdXXXWVLYwmEcHlQGXRM7JMafB89NFHm2HDhpnFixdn7qoQxUOCJiIHa2Vsb/LMM8+YU045xSZ9uJymLPrGbI0M1Ouuu87u6q2ibFFMJGgiUnh9FwcMGGCaN29ud2l2OUpZfIxSCtbW6A85btw429FfiGIgQRORgQLpd955x/Ts2dPstNNOTucoi6eRwMOGozSHfuyxx+xGqkIUGgmaiARsMvnSSy+ZLl262G74Lqcoi7+RCUk3FzYY/fzzzzN3X4jCIEETJYX1sqVLl5onn3zSHHbYYXbNxeUIZckxZmubb765zYJkXU1d/EWhkKCJkoEjW7hwoXnggQdsUS6jd5cDlCXTWB896aSTbCH2r7/+qv3WRN5I0ERJIPlj3rx5tn1VgwYN1Ew4pUbCCDPziRMn2i4wEjWRDxI0ETp0/Zg1a5a58sorbfsqdfxIt3H/2ZbmxRdftFsAKQQpqosETYQKM7OPP/7YnH/++XYdxeXgZOm03XbbzYwaNcqsWLFCoiaqhQRNhAZi9tlnn5kzzjjDbvXicmqydBt9OimoJ+tVoiaCIkEToUCHCLZ8Oe2008yGG27odGYyGbbzzjubxx9/3G5FozU1EQQJmig6jLS/+OILc/LJJ9ttRlxOTCbLtvr165sRI0aYlStXStREzkjQRNFhN+POnTvbThEu5yWTuaxhw4ZW1NQqS+SKBE0UFcJG3bp105qZLLBRyrHrrruakSNH2jo1IapCgiaKBr0Zu3fvbvcwU2q+rDpGnRpNqp977jlb7iFEZUjQRFHA+Vx99dV2TyyJmSwfW3vttW3x9auvvqrMR1EpEjRRFGhnVbduXXUAkRXEaJPVqVMn8/bbb2eeMCHKI0ETBYVas2effdZ2VF999dWdzkkmq44Ruj7vvPNsYb4QLiRoomAgZu+9955p2bKlGg3LCm6EruvUqWOuueYas2jRosxTJ8RfSNBEQaBwev78+eaEE06wax4uhyST5WskiTRq1Mjcd999tpmxENlI0ETeUPhKen6vXr1UOB3AcM40Z2ZGe/jhh5v27dvbbXToccnPXH8jW82sueaaplWrVmbMmDFKEhFlkKCJvPnhhx/M0KFDrXN2OSBZeSN0Rn3eY489ZrP3SHaYMmWKeeWVV8y9995rOnToYNeMXH8rW80OnEgSYS81ITwkaCIvfvnlF7uXFbMMpefnZvXq1TO33367mTlzpr1+/tZObKEyefJkc84555hatWo5j5F241nbaqut7K7XWk8THhI0UW1YN6N7fteuXbVulqPVqFHDXH/99Wbx4sWVhstIsGHGxiyEEJvrWGk3SkJYTxs4cKA6iQiLBE1Um2XLlpk777xTobEA1qJFCzsIYDBQFXRaISRJ93nXsWSriq7btGljZ7RCSNBEtaBh7AsvvGCaNm3qdDSy8kaix1133WU7yOfKjBkzzKmnnqpwbiW28cYbm7POOss2wRbpRoImAsPswnO0qjfL3Vg7oyiYcGKusJ5G15XNNtvMeUzZqvU0ri3X6bfffstcOZFGJGgiMIQa+/fvbzbZZBOng5GVN9Z76HJB7VSQ/b343bfeesscfPDBzuPKVtlaa61lE5Mo7BfpRYImAsEI+OWXX7Yd0F2OReY20sxJzw8yO/MggaRv377WabuOLVtl7IR+wQUXmBUrVmSunEgbEjSRM8wW5s6da1Ol11lnHadTkZU3eloeeOCBtl4vyOzMAxF88cUXTYMGDZzHl60yZsGEHkePHl2t6yzijwRN5AyJIE888YTdHt/lUGRuW3/99e36Ti6ZjRUxa9Ysm/ig3QsqN7Ie27VrZ77++uvMlRNpQoImcoKaqWnTppmTTz5ZdVEBjMxGdh5YuHBhXrMG1t4YTGjdsmqjjOT++++3AwjN1NKFBE3kBOGye+65x2y55ZZOJyJz27rrrmsuueSSzFXMjw8++MDOPlyfI/vLCPHutddeZsGCBRK0lCFBE1XC7Oz111+3zlT1ULkb12qbbbaxHT8KwTfffGPuvvtuNS7OwRhIXHfddTaJSaKWHiRookq+++47c8stt6gWKqCROHP00Ueb33//PXMl84MQGk2MGzdu7Pw82V/GYGLHHXe0SUzqyJ8eJGiiSkg3b9u2rdNxyCo2toEZNmxYwWYIHIe1OLJMXZ8nK2vMZPv06WOTmUQ6kKCJSqFTBTVQ6tcYzOigst9++5klS5ZkrmRhoDv/2LFjNVvO0Xbaaaece2eK+CNBE5UyYcIEOzvT2lkwYwBw9dVXFzzcxSxtzpw5pmPHjs7PlZU1EkRYS2NgJpKPBE1UCKnibHVC6MzlLGRuQ/wbNmxopk6dmrmShQXnPHjwYPXRzNH22GMP8+mnn2qWlgIkaKJC3njjDXPYYYcpqy6gbbDBBua0006z278UAxzzRx99ZB216/NlZY2WYexyoJZYyUeCJpyQmXfrrbeaOnXqOJ2ErGLbfvvtzb/+9a+ipYtzXFL4SXhwfb6svLVu3drMnj1bGY8JR4ImnMycOdOccMIJ2ok6oHmtlxYtWpS5krlBv8YgnS2or2IGvcUWWzi/h6ysbbTRRmb48OG2QYBILhI04YQ1GtaBlAwSzGrXrm1ntkHWa5g1vPbaa3YQkWvNGsJHBuVJJ53k/B6yskYPTNq2ffHFF0WbOYvSI0ET5WC/s7PPPtuuBbmcg8xtrDWyrU7QPbmWLl1q90obMGCA/f+5whrd008/rZ0PcrTtttvOjB8/3vz666+ZKyiShgRNlGPcuHGmRYsWSgYJaKTqX3TRRTY7NAhc72bNmtlU/HfeeSfzr1XDzO7LL780++yzj/P7yMoaTbWvvfZau7+cSCYSNFEGQl4UUtOD0OUUZBXb7rvvbsaMGZO5krnBWhjJHTR93nbbbc0jjzwSKDuS3+3Xr5+2lcnRSA6ZPn26kkMSigRNlGH+/Pnm+OOPNzVq1HA6BJnbuF4nnnhi4GQQMu8OPfRQO3ugCPjcc8+1e5/lCmt1M2bMMFtttZXWO3MwOqw8+eSTZuXKlZkrKJKEBE2UYdSoUaZp06Ya8Qc0UvVZAwtavDtkyBDbRNc7DqFHZnm5HocEB3oVkhyCIGZ/J1l54xpdfPHFNjlEJA8JmvgTFsuvvPJKdQYJaDhJCtAJZQWBQt8uXbqUSb6pWbOmbdUUZMdlxO/ZZ5/V5p85GmuOlDwEHXyI6CNBE3/CqPXwww9X7VlAYwDQq1evwJ1BJk2aZNfd/LPhI444wrz55ps5p5fze2zxc8ABB6gdVg628cYbm6FDh6omLYFI0MSfMMpv0qSJwo0BjHWr/fff37zwwguZq5gbJN/QvNg1Gya9/P7777ed9YNwxx13qNQiB2NGfemll5p58+ZlrpxIChI0YSHr65prrlHniYC23nrrmXPOOSfwNjEk3/zzn/+0ySD+YzLLOv300wMlhwDbpDRo0EDlFjkYs9kgs2ARDyRowkLI6thjj7Vb17scgMxtjRo1Mo8++migNHCcKG2Y6CriOia25557mhEjRgRa5+F3yZJEZF3HlP1lZIXSb1NF1slCgiYsbO1Php1G97kboSv6XX788ceZq5gbZCXShqky4SE5pGfPnubbb7/N/FVuUKRNPZtS+Cs31onZGilomYWINhI0YXnooYfUWT+gbb311ua2224LvNZFa6ydd965yrVK6tOChsVIdGjfvr0Se6owrv1xxx1npk2blrlyIglI0MSfoaoNN9zQ+fLL3HbQQQfZpsJBIDRJJxa6v7uOmW3MtEj0yLVhsQcJJXQecR1T9peRADV27FitoyUICZqwCQ1t27a1GyG6XnxZeWOtkZq9oCFBfn+//fbLKb2e8G+nTp3M3LlzM3+dG/y+wsdVG11DaDUWdIYtoosETZipU6eaXXbZResuAYxuKiNHjsxcwaphFoDRiYU6KNcxXcYs4oknngg8i7jssstss2TXMWWrjEEJzYq1jpYcJGjCtl8i68v10svKG+svZ555ppkzZ07mClaNJ2i0qAqyvkVdWY8ePQJ38J84caIdpLiOKVtlDOBOOeUU8+GHH2aumog7EjRhi0xzWdORrTKSZwYNGhRobQsx+/TTT+0uBkFnwq1atTKTJ0/OHCk3EMDOnTsrhb8Ka9mypd0jTSQDCVrKYf2AfbjUXT9343oRpg0SBiTx5qabbqrWZpyIIH8btNaN+rgddtjBeUzZKqMrC933tZ1MMpCgpZyFCxfaZq3qAZibrb/++ubmm282y5cvz1zBqkFcKFyvbqIG96ZDhw62u0gQ6M15yCGH6N5WYqxn9u/fX30dE4IELeW8++67pl69ekoIydHIUCTVO0gHD0KTL730Ul5dWBo3bmw7WwSBz6V4mHo51zFlq/ax+7//+z87sBPxR4KWcnCSqlnKzZhdsd4YdKbEela3bt3yavpMjSA9I4Mmh1CYTfNkDVjcxj3p2rVr4G4vIppI0FLOjTfeGCiNPM3GRpxB+//98ccf5qOPPqq0b2MuhuPdd999rUAFgVDa+eefr6SfSoy97IIm3YhoIkFLOaSfKxMuN6P/4owZMwIlgzCjuvvuuwtS5Ezo8IYbbgicHIIIU8/mOqZsVSNotk4S8UeClmJ+++03c+SRR6rvXw5GyO+BBx6wu0znCsKzYMECu02M65hBjU4uzCaqkxxCE2XdZ7exhjxs2LBAAxURTSRoKSZIG6a0G7VgbNsfZHbEDtbPP/+87ZzvOmZ1bKeddrJp5kEgOYSekKSou46ZdmMN+b777tNWMglAgpZiGOmzLpRPskIajE042fz0q6++yly5qmG0v2zZMrt+5TpmdQ1xPOOMM8zKlSszn5QbU6ZMsSn8utflbZNNNrGlGJRWiHgjQUsxrAcppbtqY6uXF198MdAInlkRJRH169d3HrO6xlrc7rvvbvevC8L3339vmymrv2N5Yw2ZvefU0zH+SNBSzIQJE2y4RSndlRsp90H6NgKj/Xvuuaco4dxatWrZ+rIgtXDMGEePHm2L6F3HTLNxjyiJ+PzzzzNXS8QVCVqKIfsN5+h6yWWrjJKG4cOHB+okwTrbrFmz7EabrmPmaySHkGgSdEbx5Zdf2qzW6rTfSrJ5TYpVixZ/JGgphqw91aBVbmziSTf2IMkgP/30k90mppjhPfo7jhgxIvOJuUFNHE2VCx0GTYIdffTRNkQs4o0ELcWwEF7IDLykGckgt99+u/n6668zVyw3Fi9ebHr16uU8ZqGMdZ8uXbrYTMogTJ8+3Rx33HHa/NNnlEO8/vrrmask4ooELcX07t3bNtt1veCy1UyDBg3MW2+9FWibGGAH8H79+tk0+WJlFXJcklUQqCAQOqVzv0LNZa1169bm5ZdfzlwlEVckaCnmggsu0HpKBca6yoUXXhgoVd+D8OTSpUttUsiuu+5qZ3quz8jX2Pzzuuuus58XpCgYx40Ddx0zrdaiRQubySrijQQtxZx33nkStAqM3ocURQcN6WXD377wwgvWWRajvdjqq69u+ztSIB9E0Egmueyyy9Q5JMu4js8991zmCom4IkFLMRT9StDcxpoKWYH5tkMiEWPmzJl292jaZ7k+Kx9jlkYCSpCkFX73qaeeMo0aNXIeM41Gr8unn346c4VEXJGgpZjTTjtNo3SHMfMZOHBgwTZ9RBQpbGbfLdauCrmuRjjzxBNPtH05g4gvKercf3UOWWWEhhF5EW8kaCnmmGOOsTVNrhc8zUZa++zZswMVLucKNW0kcxSy4JrygE8//TTQ9/3ll1/Mgw8+aDbffHPnMdNmErRkIEFLMdTeSNDKGzOpIF31gzJ16lRz4IEHFizcy4zytttus625gszS2FutXbt2zmOmzSRoyUCClmLYqVchx7LGmhSCEzRVPwisYXldOwqx8SYZmfR3/OabbwIJGvV17K+mQY0ELSlI0FKM0vbLG7NW+jDmmwxSFYja8uXLbeE2+3Hl20+TECabVAZpoMx3eOmll0zTpk2dx0yTKSkkGUjQUsy5554rQcsyumfg1EiwCANEk8STkSNHmubNm+ddr3bSSScF3gKFhrzdu3d3Hi9Nxr6AlGmIeCNBSzFK2//LyPZr2LCh7fIRJAW+EPz4449m0qRJdlfpfFL72TmBfoRBwqUkhzzxxBP2b13HTIupsDoZSNBSTJ8+fdT6KmPMjui/GDT9nY022VqGzVLzAWH56KOP7J5ldevWdX7HqgxRpj9nkIQWznXatGmmQ4cOzmOmxdi9YPz48ZmrIuKKBC3F3HLLLUUp9o2bsX5Vu3btwF31gV6KPXr0sLtIsyt0PlCEvWDBArsLwl577VWtGrH999/fCmyQ86DTyIABA8y6667rPGYajGzPN954I3NFRFyRoKWYhx56yG4/73rB02Rk+VGcHDTtndDesGHDbN0a2YpHHnmkbXWVT4Ykn0/2IetqRxxxRGCRocUW+9wRxswV6tfoNL/33ns7j5kGO/bYY+1MVcQbCVqKwWlSWJtvhl3cjcLkZ555JnNVcofZ1CWXXPLnOiRiQtPfhx9+OHByhh+SRVhXI3En6PoW28rw3YKIM79P/V1anwVt8JkMJGgpBoeZ9mQA1s4OOOAAs2zZssxVyQ3EYty4caZVq1Zljkdd32677Wbru/JdV2PGOGPGDHP99dfbhJXsz6nMWIObOHFioBR+1vDI8tt2222dx0yyUfJAo+65c+dmroaIKxK0FMOIdOutt071DI1QIXuXBV07YwbF37laR9G5g73Q2H7m/fffz/xF9SAcSBE2vSUR3lxS+/l8BJUtbHIFgZ41a5ZN/XcdM8nGzJrZKRuzingjQUsxhJnoK5jWBrXUnTVu3NgmgwQFoSLNHvFwHZtBwsYbb2w6depk9x8j4SNICDAb/o4i7NGjR9vdpnPZZZzQJ98xSH9HsiMfeeSR1GW+so5MglQx252JcJCgpRjWeSjoLWSj3DgZba7OPvtsG24LAuL06KOP5hQGJATZpk0b21aJjvvVFTX46aef7A7a1A/WqVPH+Xmekb362GOP2c/MFcQPEeSZcB0zqUbYnczSsArqRfGQoKUYsvGoP0pjP0dmUDvssINtFxUUQlN018g1A5GZIOtq7GC9cOHCQLMmP9wzdgK48cYbq9zPjF6d/G4QEWUtkTU7vrPrmEk0noPHH388r8GGiAYStJTDDKUYuylH3chMJC2eFPmgEEJkPct13Mpsm222Mb1797aJHvnMBnC81I4NHjzYdrioqLkwjnrs2LGBkkP4XqTwV7e4O45GuYLaXiUDCVrKYe2AtR7Xi55kIxmmf//+mauQOz///LNNuNhqq62cx63KGDxQhI1oEELMZ1ZAqBRx7dixo/Mesr537bXXmq+++irzF1XD91m0aJE5/fTTyx0vqda+fXu7lY6IPxK0lPPvf/87dan7OHo6alSn7oi/oSN/PiE5/hYnOmbMGDvTyqd3JOHLTz75xKads67mT/ChpRPrbkE+A6GlRjENM3fuBQOMmTNnZs5exBkJWsqhO0Ihti+Jk1FITUF00I4eiAJZgEFqwioztm0hbEi2KYkm1YVZFVmQ3rpadmo/ZQmDBg0KlBzCeVJD17JlyzLfN4nGOihhYGalIv5I0FIO4ah99tknNZmOCDcJGuwDFhQ20DznnHMKmtZOvRohTGYIQda6XCCKTz75pM1SZHblDVLogkHj4yDhTers7rrrrgrLEpJim222mbn33nsDtQoT0UWClnKYpVDbVKNGDecLnzTD0VM8zIwmKK+88ordN8t13HyM8gGE8u2337ZrdPlCk13W1XDWhCB33HFHM2rUqEAzUsQRkU1655Dtt9/e9r7MJ+wrooMETZgrrrjChqZcL3zSbKeddrK9FoOCgyfBorrJIFUZazlkXZLkwWwhXwc7b948c9FFF9lsRbIg2SooaFiNrXHoJen6vkkxCtBfffXVzBmLuCNBE7YAl6w/1wufJCN8duihh9rarKDQ549EjmKH4Ng2ZujQoTa8mU+9GiBI1L7RDYXzpr9jEKFkRjdhwoTEbgLL7JVsTjUlTg4SNGHee+896/SS3gIL0e7bt2/g2Q9rT4hMgwYNnMcttFGvxmyQHo6FCIWxpQ0F9A8++KBdG8sVzhtRJFMyic8G4WcSaYL0vBTRRoIm7HoSGxwmdSTuGckSkydPzpx17lDvxUg+zB6HrKuRTu4lcwRJ6HDBRqQkwgTdAYBQ65AhQyos3o6z1apVyw5U8k3GEdFBgiass7zgggsSvY6GGFGrxYwjKIggoUDXcYtptCQ7+OCD7bpavoLGTI8QYtAwJn+3ZMkSm1iStFnaHnvsUZBrK6KDBE1YqK9KckbbrrvuWu1+fdddd13Jis8pp8DxksiSbwYk5x70/Pl9RK1Hjx6JmsGThMMu5R988EHmTEUSkKAJCwXW++67byLrjhCFzp0728y/oFD0fNBBB+W0D1mxjHtCdibraqXas2vKlClmiy22cH6/OBqz35tvvlnrZwlDgiYsJAuwv1euHeTjZMw877jjjsCdQWD48OG2ya/ruGEaMwqSWljLo7lx2DA7POqooxKzM0Pt2rXNM888U61nQkQXCZqwEFZi25Ak9nU85JBDbD/DoODEu3TpYhM0XMcN21jDognx4Ycfbtd+woTQIwkUtA1zfbe42YEHHmhnndUJQYvoIkETf0IW3J577pmoxX8E4KqrrrKbmQaFzh1NmjSJ3PVgFk27MtY9w9yUkr3cCEvHvU0a3//KK6+0ZREiWUjQxJ/QSYKWSUla/Mfx0/YpaD0XI3dq1mgf5TpuqQ2nTJNkviN7uoUx0yCFn0a+cd9uaPPNN7c7iLOrgEgWEjTxJ6wnXHPNNUVr7xS2sd5Dj8Qvvvgic4a5Q/IFYako118xc2TLGNpTsYVMvp1FcoHQLUIa51l8q1atzNSpUwMPckT0kaCJMtBVolmzZokIO+6888423b06YTn2iUMsXMeNktFRn/rBY4891rz22mtFD0FSx3fqqaeGWmReSCNjtGfPngo3JhQJmigD6ySdOnWKffd9BJldBGjrFRREoVu3brFy2pQVtGnTxjzxxBNmxYoVRQ1B8hnsoef6HlE3kp7IblS4MZlI0EQZWCe55ZZbYl9kzdpXv379rHMPCs1q2SiTVHnXsaNqzNbYNJR9zJiBcC+LAbV5NDuOYwo/35uyB4Ubk4kETZSD0BXrDHFz6NnGtiDsX1admcqdd95pNtxwQ+dx42Ds8dWrVy/z4YcfFqVPIWt1FCXHbYcGBJjBmoqpk4sETZTj22+/tb0d4+rUydJkjzdmEkFA/JjREborZWeQQhiNd88880w7OAnSYT9X3nnnHbvZaZwGPfXr17db6IRZ6iDCRYImnAwbNszWYHnb+MfJyMJjF+KgXSAQtHHjxtlwZRzP22+sgx555JFmxIgRBU/tZxPS888/PzYp/Agv66JBBzkiXkjQhBM2wTz55JNjV5NGMkjXrl0Db9qIs0cAzzrrrERtlYIwU4v30EMPFXxdDaFkHz3X50bNGKSQuYoQi+QiQRNOCMv0798/dtlshNqCbmQJJAlQr0bfxiSULPiNEgZamyH0hVpX43qxi3ccOofQ/oxdx5UMkmwkaKJCWCdhp+M4tTqqbt9GBHzgwIGxb+tUmdEhgyLsN998s1r7wvlhRnvhhRdGfh89dqZmkPP9999nvrlIKhI0USHU6pAVFpdsNkKFN9xwg92QMgiEG0mEYTPNJM7Oss1bV3vuuedsf8t819VovRX154PkFULoYXRSEaVFgiYqZdKkSeawww6LRTYbtWM0WA7quJidkf2WxK1zXIZo0w2G5sYki1TX0SOGffr0ifQ+aQxybrvttqJkeoroIUETlYIjoOYo6ps7kvxw3nnn2ZF4EHDKpOpfeumlzuMm2ahXY4Y1f/78aiWLMIMnAYeQnuv4UTAyXjU7Sw8SNFElzNLosBDlVHb26SJVnz3MgoCjw+GxI7TruEm3TTbZxNarzZw5M1CZAwMBGvzuv//+kX0umJ3deOONgZ8JEV8kaKJKmKWx4zNJBS7HEQVjXYjOGEEhOYIGxkmoO6uu0UGjbdu2NuzKTK2qdTV+TqbkxRdfHNkNPwmrUlLAlkjKbEwPEjRRJd5onL3SXM6j1EZXDzIUq9O3kW1iSD13HTdNxhop4bnHHnusyvAcAnHfffdFut8n66G33357TgItkoMETeQEYRuKc6O4Vxq1ckOGDDHvvvuumTZtWs7GjtSDBw+Odd/GQhqzGmbhtD1jfzUXs2bNMpdccontWh/VWS1bxDRv3rwgWZwiXkjQRE7gGOhSThIADsPlSEplfJ+aNWva9aAgRtumDTbYINXhRr9xLZjdUIjdpUsX27n/8ccft5mCp512mmnQoIFNAonyNaMrCDNNZpIStHQhQRM5Q3o7e0mRHu9yJLLkGLM1hA3RRyAonua/o16+Qas2QuNK008nEjSRM4x26QfI1iRx6/EoS74hwswsx48fr5lZSpGgiUCQ2k023IEHHqhQnSxSRhi5Z8+e2o06xUjQRGCWL19uBg0aFLsNHmXJNUoP2MeuomQWkQ4kaCIwLLZ/9tlntjNHkrZakcXTWNcjWWXo0KGB98ATyUKCJqrFL7/8Ytcq6BThcjIyWVjGlkEUeS9btizzdIq0IkET1YYO9WzLEcXaNFk6jN0D2rVrZ+sKhZCgiWpDRwk2TezRo0dqOtXLomOEGnfffXczbNgwhRqFRYIm8oKefrTFonkxadMuxyOTFdrIsK1Tp47p3bu3Qo3iTyRoIm9+/PFHM3LkSLsw73I+MlmhjUJvOpnQvUYIDwmayBuKWGkMfOutt9rOEi4HJJMVyijqZ3dxNnNVJ32RjQRNFATW0xYuXGj31mKh3uWIZLJ8jXWzpk2b2mbU2udM+JGgiYKBqLFRJOtpbOnickgyWXWNNdoddtjB3HTTTWbp0qWZp06Iv5CgiYKCqFGfxih6jTXWcDommSyokQRCZ5orrrjCzJkzJ/O0CVEWCZooCqRSkyQSta1mZPE01ma7detm3n///cwTJkR5JGiiaLCX1nbbbRf5LUdk0TbWZI855hjzxhtvqIu+qBQJmiga1Kj16dPHbLPNNqpRk1XL6BVKRuOECRNsOFuIypCgiaLCNvhs2b/FFltouxlZICNc3bx5c/Piiy/azWWFqAoJmig6ZKSx/rHppptK1GQ5GWHqPffc04wZM0bp+SJnJGgiFJYsWWJr1NiE0eXAZDLPGPSQJcvMjF0dhMgVCZoIBRbzFy1aZM455xx1E5FVak2aNDHjxo2zMzMlgYggSNBEaNCmaP78+XZjUM3UZC6jez5iRn9QiZkIigRNhAqZaojalVdeaQtlXU5Nlk7be++9zcsvv2xWrlwpMRPVQoImQgdRW7Bggenbt6+pV6+e07nJ0mVt27Y1U6ZMMT/99JPETFQbCZooCYja4sWLzT333GN22203dRRJqdEejaLp6dOn27pFiZnIBwmaKBmsqX399ddm+PDhpnXr1ur9mDKrWbOmTRL65JNP7I7TEjORLxI0UXIovn7++efN8ccfb52cy/nJkmN0jaldu7a54YYbzOeff649zUTBkKCJSEAiwJtvvmkuuOACU6tWLacjlMXf2FZojz32MA8//LD56quvMndfiMIgQRORgTWUjz76yI7cGzdurKbGCTKKpTfaaCNz1FFHmVGjRtlZuRCFRoImIsUff/xhd74eOnSoadeunVl//fWdDlIWHyPEuO2225qLL77YZjKq+4coFhI0ETlIDvj+++/NK6+8Youw6dbvcpSy6Nu6665rGwzfcccd5rPPPsvcYSGKgwRNRBY6rJMBd+utt1qniHN0OU1Z9IxwMYkfJ598sg0xfvPNN5m7KkTxkKCJSEMGHOstdF0//fTTtQ1NDGy99dYz++23n7n++uvNe++9Z1PyhQgDCZqIBaytEbLCSe6///7WaUrYomVkMLJDObOyESNG2G2DhAgTCZqIDayt0YH9ueees7O1+vXrm3XWWcfpXGXhGeHFzTbbzLRp08b069fPzJgxww5AhAgbCZqIJdQwPfTQQ6ZDhw6mTp06dnbgcray4hkz5A022MDuXUYG46uvvmp++OGHzB0SInwkaCLWeHVrtM7afPPN1RMyJKtRo4adIZ9yyik2vEgLMyFKjQRNxB7CW3QZueKKK0yzZs3sBqIqyi6Orb322qZu3brmyCOPNIMHD7a7JtBoWogoIEETiYGC3QkTJtj2WWwUySaianicvxFaRMhIwz/00EPNAw88YObNm6fsRRE5JGgicbDb8eTJk83ll19uZ2wkLLDGpqzIYEaHD0KLnpCxZrlo0SLNyERkkaCJxEJhNhl3rLG1aNHCrrGttdZaErYqjHVIyiJ23HFHuwPCyJEjzYoVK9QVX0QeCZpIPKT7M7OgPyRZkbTSIt2fdTaJ2ypjNsYslgbCXtYi65KImPYpE3FBgiZSBVv8T5s2zc7aKNBmqxqceVqFzVsfq1evnuncubN56qmnzJIlSzJXS4h4IUETqYLZBrMOMiOXL19uxo8fb7p3724aNWpksyNdTj+JhohRv8eOBgMGDDAzZ860SR6sj2lGJuKKBE2kEpw2hhMniYRZCRmSV111lZ25kQiRtNT/DTfc0Ar3iSeeaBM83n//fdsnk33oJGQiCUjQROrxZm0kkbBtzbJly8zbb79tnX63bt3MXnvtZUOTccqUJIzqJXa0b9/e9OnTxzZ4njVrlvn2229t6JVZqkRMJAkJmhAOmLnRxokGu7NnzzYTJ040AwcOtMkSpLA3bNjwzzo3sgJLJXQIF98BI9mFMoVOnTqZm266yWYnMguj+BkRow+mUu5FkpGgCVEFzN4Iy5G6Trbk559/bqZPn27Gjh1ru2Vcc801pkuXLubggw82e+yxh+2kUbNmTSsy1HFRKsDsDuHLJbMSkeL3+Hv+loxMjGNRetCgQQO7P9xRRx1lLrzwQrt5Ju2nEF32j5s/f75tRUUoVbMwkSYkaEJUA2Y6dCZB5BYvXmzmzp1rEyvY/4smvYT3hg8fbh588EGbUcna3LnnnmvOPvtsc8IJJ5ijjz7adOzYsZwdc8wxVhz5XWaDiOWdd95phgwZYkXrpZdesun01Nexnc6XX375p3gRMpV4iTQjQROiQHhrcYQrETtEhkxKBG/hwoVW9JjdMYv6+OOPnYYoss7F733xxRd2VwEEi7U9QoaIlsKGQriRoAkhhEgEEjQhhBCJQIImhBAiEUjQhBBCJAIJmhBCiEQgQRNCCJEIJGhCCCESgQRNCCFEIpCgCSGESAQSNCGEEIlAgiaEECIRSNCEEEIkAgmaEEKIRCBBE0IIkQgkaEIIIRKBBE0IIUQikKAJIYRIBBI0IYQQiUCCJoQQIhFI0IQQQiQCCZoQQohEIEETQgiRCCRoQgghEoEETQghRCKQoAkhhEgEEjQhhBCJQIImhBAiEUjQhBBCJAIJmhBCiEQgQRNCCJEIJGhCCCESQewF7b///a/56aefzOLFi82yZcvMb7/9lvlJfPjPf/5jVq5cac/h66+/Nn/88UfmJ8Xlf//7n/n999/LGZ/PdY0afF++188//2xWrFhhli5daubPn29mzZplZs6cWcY++eQTM3v2bPtzruvy5cvNjz/+aH799Vd7vaME58Q1j+J98K65/7sFtahd84rgfPmurnMI670sNZ5fwCd98803ZuHChebzzz83n332WYXv2RdffGG++uor67++//5765M5BscKk1gLGg8eF3HUqFHmhhtuMHfeeaeZNGmSvZhxAQfLAzF8+HB7DnfddZd56623rDAX+2HggX3ttdfMyy+/XMbefvttKwBRgGvAtWCwwsvz5ptvmpEjR5qHHnrI3HLLLebyyy833bp1MyeffLI56aST7P9ip556qjnnnHPMFVdcYa/r/fffb6/x888/byZPnmzef/99K4SLFi2y4ljKgRAO44033ih3H6ZOnWpFuxR4Tm3OnDn2mo8bN86a/ztWZd7fvP766+a9994zH3zwgb3uDDKi+J7+8ssv9vtNmDChzHm8+uqrZsaMGZnfSh6INe/BvHnzzPTp0+19GzZsmPVHvXv3NhdeeKHp2rVrmXcMO+WUU+x7dumll5prrrnG/v7DDz9s/vWvf9lj4Es+/PBDM3fuXPssM6gs5uAm1oKGk7vvvvvMTjvtZNZcc02z/vrrmwMOOMC+PHGAkS8O4+KLLzabbbaZPYd1113XtGzZ0j4I3Phiihqfvccee5htt922jB155JFWVEsJ541zYeSHc7n11lvNMcccYxo1amQ23nhje62w1Vdf3fz973932j/+8Q/7c+93a9SoYbbaaivTsGFD+5yceOKJ5uqrrzaPPPKIdViMOBHysGdFTzzxhGnVqlWZe7DddtuZo446yowdOzbzW+GCwCNAp512mr3m2d8tqNWtW9fUr1/f7LnnnqZ169b2ul9//fXmmWeeMR9//LF1dDjUYg/gcoEB8o033mh23nnnMufAM3PRRRdlfis5MGhhUMfgiffgvPPOs+8G57zOOuvY92eNNdaw75LrHcO894zf4z3j32rWrGmP0aRJE9O2bVtz9tlnm5tuusmKHLO+YhFbQcPp4IS4+Kutttqftt5665kuXbrYmU/UwWHzUm+++eZlzoGHo127dtaZF9O5fvrpp1ZIsz8b22uvvey1LRUI+bfffmvGjx9vXwQcIi+L/3vma3/729/sy8dLiIDst99+ZsSIEaHP1pht7rjjjuW+H/fh3//+d+a3wgNhwckdf/zx5b5TIYzrjhNkYLL33ntbcXv33XfNd999F/pgwg8h6ksuuaTc84ZfYUaSJLjeCNmVV15pdtttNzsh4H3IPu9CGfccv8YzxQywWMRW0H744Qdzzz33mE022aTMheOGMBokpBR1cNp3332301njZBkRMpop1ktekaDhZAhFlgLEDGf6wAMPmAYNGhTtBXMZLxwzfgYaYTJw4MBygoYD4D4QXg0bBB1Hx0Ai+zsVy7jujRs3tvd8wYIFJV2r+vLLL81ll11m1l577TLfMWmChl/BfzJrxtdkn2uxjPt81llnWb9TLGIpaIwgicXzgDHS81+4jTbayFx77bUlH+1VxZIlS+w60FprrVXuHDDCj4MGDbLiXYxwTNQEjXMk/NS/f/9ys1a/4fC9kb4X6uA64oj4X/6bf+cl8sIl3t9UdDyuxcSJE20YJkyiJmhEN7j/W2yxRZnvlP3dqmOuY2XbhhtuaNdqCIUXc52lMpIuaLxj+JPu3bvbGVn2OfqNe8Z7wzuU/X5lm/9dy37P/PecECYhftaMi0UsBQ2heuqpp+zaWfYF84wLS7iGKXWUwXlXJmhYvXr1rJNl1lBoUYuaoDEzGD16tJ1h+7+TZ4gT12ubbbaxMXrWAA888EBz6KGHmmOPPdYmgxDWIGR70EEHmebNm9v1D36Xv0EoeZF5Cf0v4NZbb21ftrAHQlEUNJ65Lbfcssx3wrhePDNcyzp16uRk3nVnXQXHxzH8x/WM+4KzJTmhGIO4qkiyoHE9yRAmUQpxyT6/bOP+8PNNN93UztKZxfE+de7c2a6psqTD/2Ksh/Iz1snwuaw9MhCqXbu2qVWrln3XeF951zgms0KyIItFLAWNtSXi3P6HLtsIRZKlw00sxYuRC7kIGoZTJsOv0KPWqAkaSRlkLLpm3RhJHSRKEBYkDk+KsJce7E+gQZQIXeGcyebkWnO+rA0++uijdt0G8WvatKkVMmb1u+++u83CCvt5iZOg4eBY1yPjj4SOXIxoCsd78sknzVVXXWVatGhhNthgg3LH9oyfPfjggzZBJ+x7kWRB476SEc57lH1u2YYA7b///vb94F1hgIcIVuR7uD/eu8bvIVZksPIuv/LKK2bo0KE2yYa18KOPPtomORVzjTqWgvbCCy/YBXzXDfGMkR7ZelzwsF+KXMlV0HDwp59+ul1fKCRREzRS6smo838fRnfMskgF5qVEwHiJvHubbR6un/E3vJi8fByDY/ECMht48cUX7cvmF8YwiJOgsa5JGjbXkOuZq3nXHWeGUJF8QyKC//ie4VSnTJli/zZMkixoRKz++c9/ljmvbGMdkwQlMj29QSLX33t/XHg/81v2PedY3HeiTPw3Py8WsRM0aiVI//Qng/gNh8C0l+SQsF+KXMlV0DDWF/hd/qZQREnQmEUx8yLzzf99cKzMtnG0hST75eOFw4r5slVE3ASNdwpnVR28a85o/qOPPjL77LOPMwTJTIEkkbCXDZIqaDzbzLhc7xfGAIKsYiIUxfKX3r0vJrETNOqjCDtlvwTMYIjP4/SzbxJCQUoqNzOKBBE0HBxOj1kKi7qFIEqCRoJM3759yy1UM9OmNIPwYlKJm6AR7q2uoHng2HgvqUtirYXzzf4c3mnCzzyjYZJUQSMScfPNN5e7zhhrXtRC8jvFFpxiEytB4wVg1EaihP+GnHDCCeXqZhC9XXfd1T6kUZylBRE0jJec9TRGWoWYrURJ0Aj70W3A70iI91NQTagiqaRR0ADnyRroEUcc4SxdadOmjW0wECZJFTTS9EnmyD4nz1iawRdENZIVhFgJGi1pzjjjjDIPG6JF2ILFTsJS/sVmHCIV8GHXFuVCRYKGM2PU6n+pMDKFaD9DuCZfoiRoJPrQxsp/zpxvx44dbRw+qaRV0ABR69evn42w+D+LJB26xIQ5a0iqoOFrGDhkn5Nnffr0sRGSJBAbQeOhJlWfrLTsm0GIivRR2mAR2993333L/BzHwAiEIuaoTacrEjRGq8w2jzvuOOfIFbGjbxpdDfIhDiFHEkJIG8bRJJW0CxrvNc8h55z9WSQCEZIMc+aQZEEjvT77nDwrxVplsYiNoLGGwoNGenX2zaDugRRfXjCcIo7eLwKEJFnwLESYrpBUJGj8N7U4pDsz+8SpZ/+cF5/zpuFuPmtLURI0kgRoauoqqOY7Ev8vlBONGmkXNNaFXetoDF55DjVDyx98Tfv27cuck2c0FGbAnwRiI2iEHoipZ9cokTDATSKNGHgRWV+iiDb7hvE3CERUOsh7VCRonBcdEwiz8bLvsMMOZc4bQ+TITCLUihhUhygJGqNwupr7Z9gY50o6P4LHuUZtpp0vaRc0Gk+76tIoln/nnXcyvxkOSV5DI8km+5w8o1t+oUuCSkUsBI31L1L16TiQfSN44Yj/ettQ8HIQhqOi3T/awyESkoxSckFlgnb++efb70rmEdufUPzrT29mfYmwJJmf1QnLREnQgMQQuhi4Cj+ZdROC4lqwlpqk2Vqak0L4LLKWeeazP4f7TZIQz0SYJFXQvLIYv6/BWKtki6AkrFPHQtDoNkBbo+ybgXNnhkKRdTaktJMc4l9kxvkPGDDA1rFFhVwEDUiYoKmnvywBoz0NTYwRp6BETdBwbszSKP70z0gxnDzCzh5MdJ2gADQJ2Y9pFTTuHQXt3FP/AJR/4x5TFxUmSRU0xIoBPdGe7PPC6BnLOeNn4h79iLygcYEJNTE6z74JPGBnnnmmdWrZ8KKxs6ordHXIIYfY0X1U0lNzFTQg9EIIxjV7wRkStqHlTBCiJmhAaIR2OfSF868deoazoYcj+8gRco27sKVR0Lhf06ZNs8+0/z7z30RZyOQN+11NqqDhR4n28M74Z8MY2yexTs3O1HF+lyIvaGQvMjvxx9hpTMwU2nXxydihq7P/RcF54yDCHvVVRBBB48WmXRAZf/6kF84TAWdmSmghV6IoaMA9ZxBDQowry9MzngnOu2fPnnZfOcJTOOO4ETdBY826uoLG33F/iazQS9MvHBgtmDjvQjUQCEJSBQ3wJ2zayjvjj4DwvOFTOXeiJAyO4xiCjLygEZKgb2P2+hFOjlR89mxyQQE2MWH/mhvHoEkmC6BRmFoHETRArG6//Xb74PkfSEKqhx9+uM3mzHWEFVVBA7KuEGhG8K4apWzj582aNbOjT0SfWXh1E2VKQZwEje9JghZNa9m3Lhfjdxn5M7MbM2aMzUSm+4sr2sBM4Y477rDvRilIsqDh8xCp4cOH24GJK6xPS0E65/fu3dt2D8EPIIJkXOdqRMjwVaWIhEVa0HBKtK7y78tEii8zMKbQLrhxOEQSJvyxedLdX3/99Ui0wwoqaIAY47hdzoaSBgrPWXPMhSgLGjCT5nuwLTxbyrhCJdmGg2SBm2vHS0tH+GLtJVdI4iRoODwiJiRj8Q7mYjjHHj162G4+RBgQB/9xiTLssssutjM7IeRSLQskWdCAd4H7Sz4BYXvXDJlnj3pQfCWZ5fhRmjnkamRNDh482M7yCrHWGoRICxoxdNa9ssNOXGySQRjpVQaZkRRs+l8enCIiUqoRYDbVETRgxMRD5kp1Zv8pnEgu62lRFzTghWCUj9NnVr7VVluVCyX7jevJLJaCe7rEMDMgDB1VYYuToGE4QRIJcjUGGlUNRqg/JIOVd6KU9ynpguZBZvhjjz1m16qrujdBjfeT0ilmeEGWQApBZAWNERprZP6sHMSNB4v9wSqDvyfUQS/H7HAljoINIVmQDnv04Ke6ggYIOmEb/99yrk2aNLFrUFWtQcRB0Dy4FuyxdN1119ksSGbtla2vYfycsDO9IBENT9iiRtwErRjGQIxd5qkjZQBTqvWbtAga2d4kmvFuMOjIPtdCGTO1sFtqRVbQ6IBB+yf/xcZJsa7y7LPPVumceDFJGPA7fUJzZNJVFLIMi3wEjXAsgk99nT8WzstIqOCll16q1DHESdA8GL0zQyWM1apVK+t0uX4IgP88PEPkOU+K8AmFEOMvRcJBRUjQVhnrwISMmamRYl6KddA0hByJ3rDJLQNDfwSrUIYPo46QBKAwiaygMQNhduVyVDiwli1bWlHiglUUb2cG9u6779owVfZxcHBkWOHQSxneyEfQgL/HsfuTXzAeVGr3mMlWdI5xFDQPzolZNgkGzLjZ+w6HWJWwMbPjutCBhfXIKGRyxUnQuIYMMgl3V9f4+8oGIfwOW/uz1u01TQiLJAsafpLZLwMG3oOKrj//zv3hnP33LhdjnZVMSnasDntQEklB44WiVVVlm3hmLyJTEOhyTDg9/p21F3+cmFAmqcOlTA7JV9CAdcauXbvaByn7GBhiRdF1RX3a4ixo2XAed955p22+SuyeNRscr/+8PGNGiwCee+65dnuSUs/W4iRoFPezlT47qJOAFNR4Vln/ZRDCO8jxXNl2vAN0EOF78H3CIqmChphR43n99deXawDuGT6VDUB5Fpm9derUyd4v132szIiK4T9KscNJJAWN1E8SP6paI8FwyPQoI0ThuoCI2uOPP247amT/HQ8so3vW2UpFIQSN8yONmjCsX7QxHHz//v2d1yYpgubBjGvQoEGmQ4cO9ry5xxWNQjGuF5lehF+8pBEsbOIkaDQ4IIu2oqhIVXB9GUSytjJp0iQbliKbzvXs8m/M1Agxh7XenURB45qTMUzmb0UlMMyaaQbdq1cv608IS0YhEzwokRM0XhT2R/Kn6jOKw/G7RI4R+UEHHWTXjHDc2U6J/09Y0tV5grDl5MmTq/1y5kshBA2YhZJRtNtuu5WbmXDdCN0yG/U7haQJmgf3m+vBTIIWSlzPysIrPGtkhpKRJUGrXNAK2foKuN48a5yr/z3AcMD0ceVdCYMkChr3as6cOdYHZp+TZ8zYvElBHEUsm8gJGtNiUvX9DxSOiRoHfubKysGRk6rNCN0vakDTW/9Um3AHiRWl6u9YKEEDZhhsA0G2WPaxvOMh3iRDZF+XpAqaB88SpRuErjjPysKQOKyrrrrK+ewUmzQLmgehXwZkrpKMFi1a2PWYMO5LEgWN5DeeMfxA9jlh+B529ihlpKqQRE7Q6PTA+ob/wuOUeOgJd1BoS6zX/zs4ARzXJZdcYp1ZNiSH4DSynRq/T7EnL2gpKKSg8bKzlsjL6BJ8ZrHExLNDj0kXNK4JRsYsXUcQddd6jWesQ9IQN8w1G5CgrbpXDEZdn8lywd133x1KTVMSBY1QPP4z+3w8o/SHLi5hDBbCIFKChgNnFsbDk33R+W8aZ+KYCA9ygwhL1qtXr8zvecZMjEQQOkV48JKyGI1jz/7dunXr2oy3UmS7FVLQgGtDbQnlDq6RLuUK1Pp4JF3QPHhZub+cL51nyHr1nzOGiNDJIuxOFRK0VbCuRjKC/31gmYGWdbQ0KzZJEzTuE36Q8p7s88E4R3arJkIlQSsCLP6y6OwfRVObwhqQ52S4SWTukexBXNg16uZm0eTUWzvihlEZT+gy+/cQDzIBGaWETaEFDXDc9L/EGWYfE2N2Sq88ZsFcy7QImgfPAdecJBASEfznjTEYotGxK4mmWEjQVsEzSTGuK3GBRJ+KercWkqQJGveSYnV/TgJGJOyNN96I/bpZNpESNGqq/Ht+MTrDuftHZzz8hCBoxsvD7ooPM0thXe22226zcWTixEyx/b+L4xg7dmzmyOFRDEED1tPoFOIK3XJNWKugPo3u9PTF9P9OUgUNeG6Y6RPe8me+YggJfQrDXFeVoP0FPsB1X1q3bm3f9WKTNEGjDoxBvWuQQIRr9uzZf04UkkBkBI1wA8V4/ixGXipmVq4CS2Zd3DDCbAiAq26N2RvHuOCCC8zcuXNtNpvfiROKo54NRxcmxRI0HlB27qZNlOtB5vgUF5PhSQ89/8+TLGjA9aGNFmFp/7lj9ICsqHavGEjQ/qIiQaNujXTyYpM2QSNKU6x7WQoiI2iIll9oeKlxOghWZaMIXkBuDOm9riw/jCSSjh072ip5wk3ZYUpCcWy9wvQ7TIolaMDfUs+Hc3atp/GCVtTgOOmCBtTZUHPDM+Y/f2qf/ElFxUSC9hcUu7t2Zj/iiCPMW2+9lfmt4pHEkCPvsuteEobkZ/xOUii5oDHL4oKSheN37CRwsBMzjr8qcOCEFFkfYWE/+ziekf1HTRbC6V93oxD3/vvvD7XVTjEFDVgH4oElXONy3IzaXKnsaRE00vRd1+WUU06RoJVA0JgV0yDALyYMyOhAUVVD8kKQxKQQugm5kkLwM3TYWb58eea340/JBY0LzmacrPf4nQtJHeyemmsGIrM41o9IimBm5yrC5t94Qfyfxc2lzQuhqLAotqABa4ekoleUBOGyNAgaa7LMyl3nf/nll2sNrQSCNmrUKNsOy/9uMvBiSSCMQUbSBI0JA+dUUXidJuYIXiF8TRQouaCRYcOGlf4HiBkUGU9UuAeBG8jMZMqUKTbVl/Wx7ONWZiRLUIgb1iJpGILGubA+yU7XlfXGzLZSCBr3DScZxrVnRErSjCt9n+dwyJAhoc7UJWjGvuckd/nLajC2Q+I6hOF0kyZowPNOpMs1wGfJgd6LrLmH5feKSUkFjZeCTDtS9f2jMtLJ89kgjoef2Rb9GgknVtYlwjNuLh1FwtrDJwxBA64zZQkc0+Uw/FYKQSMh5/nnnzf33HOP/V9vG/dCw+cgWPvss4+z3IOsWOp2whyxplnQGMjwnpK0xYDL7wcQFhop8DyEQWWCRig6jjBpoClFRVEa8g6ISpCrUIotewpJSQWNmRT7U7mcLL0Z6S2Wz6iBv2Vd7d5777VNaP3C4TdEjyl4GOnBEJagAQ81dX7sCeZy5NlWCkFjKxhCvmRe0ZiaAnsy3nD29OgkLMK6F84WJxgEQtb8Le2TSMlv1qyZM1GG+0C0gDBt0M/Ih7gJ2ocfflhtQfNm4oR0ESmaGjDzYQDrFzP+m/VwrkFYjrYiQWP9nc0weY6KZfiDYjR44JqzPsn75OoihJEgQuYzrQCJbtEPNR//wz1mQMp5sfaJP2GCwuClGOfoUTJB80JhbPnhf5BxLDh6bnC+cDN5eVhHOuywwyrcOsEzCq/5bLpTF5swBQ0YQDD7cS0QZ1vYgsazwP53FNB734HwiLeVBbWDtCijAJ5+ldSQ4eQQKEaeiB1ZrjhIjP9Phif7aVEkTTcEnBSDFV5cl6Dzbwgdoh/m7AziJGj8G+UgfGfuQ1Dj7xhgcgz2JGSgyT52/s/B2OePzOUw+wxWJGg8j/Xr17fPYI8ePYpiDLaKda4807wnhHVdgzmMcyZCQUYpHXVIkqMJA4XZDDgRI+8d8wyxYsbOe8j7OHr0aLtPJX/LuifXi8HpwQcfbJtgcP+LmYRSMkHjpeECuDpVMDXmhSpkBTujAupYGA3yUlY0S0FMSGfHIRabsAUNcWdtCIfiGhF7FragMSNCqFzPgmd8Vxwf6150O2GrC9oksdhNmj3OsUuXLtb4/wggGXO8RLQ3I5xc0fnyLBD2JhTJcxLm7AziJGg4dgZ93IPqGPeCvye8WFmkgM9mtowTLVR4MxcqEjSM78szWCzj2jD7LRY824gTA7vKlh549kjEYamGQWbbtm3t7A3f6b1jnhGG5We8h7yPDArx3yT58T5zXkS+OCZ+jXtKPXCxKJmgodKcnP+h5sRJ0WWRshgw0iBeTDZVRSMVbiLT42ITtqABsyHCD6xZVDRb5aEMU9BYR+VZIBxSkegUw/gsPpPzZUTJrDxsMYM4CVqxjXeSWQJr2TQiL2Z4ygWChn9wCVqxjehBsQfSDA7IHKffKwXsYb5vCBvihw8uFiURNBw1IxHS8v0nTVElmYbF7KxNV3qmwwgXIwj/d8C5PPjgg5nfLh6lEDRA1AgXsJ7mOn9CfHQRCQuaAXO9CXVQJ8iLxkwgl0Se6hgvMQ6LETE7EPC8hdm70Y9L0DCEthSChoiwOwWDPv93KpYhZDh01s4HDBhghSXMmZkH72Tfvn2dnTWKbWEImgehdTZX5RkjtF/ZbLlQxnvHVkAMlos1cCyJoFErxnYQzBC4kNnWqlUruwaC0y0mXuo2029S+72RCo6U78BaU7Hh5WHXAKb/2dcAkSGzq1iC5jFu3Dj7QCOg3kPHZ1PuEEYRqwf3mrAjgxw6xhDyIdZPcsj2229v7w8CxL3xvmdQ4/5yngyYSGygawyDiewdGUoFguZ1r/EMB08mZikEDWfDYj5dZrheXPfs75avcW7cC557nClrU6yxkLTAQCrMkgk/zE6fffZZu9UQs3fX9y+WEU4PS9AAP0ztH/uh0XyBdw0h597kO3Pj73luGKxnhy95pmgynShBw5ETUsBhZVvz5s1t2nYxFw2z4eGlKTGxYGaLjEgZQfTv399+x2JD6I99uog9Z18HZkgIXbEFjYcKZ8rLS3ahtyBMYXoYSTEu+E7cF0LOrLGy3te9e3crQPTzYwbHffLWYRgU4RhxPp7x3xjrZvSq5NxIPmBNjdpGMmsR7GJf31whcYV12+xngOeQ0HsY/QtdsH7NLI3BDYO+7O+Wr/G8kaDVuXNnmzTA2iWDGT6zWI4uCLz77ORBWI774DqHYhiF/mFskeOHwSTNLZgZn3nmmfY94X3x3jMGHZQtZL9j2e8aP2Pgw7uGcDE44+95bhiY8s7RIJ7nnAFkMaNvJRE0UnCJo3IRs41ebdQJhR1qoKjz6aeftjM21g7CakxLaIdwGxlC/mvBwmkYLzdOZNKkSTYTkLZhZEKVMvzmh2uA8JARSzYVjVbJliNkzLobIz7ChjgfzxAH/o1t5enXyLnxd4RZSyXUlYED9b8PvAu8/GE9iy649j/88IOdNWR/t3yNETr3gnNjdh4FEfPjDapIYXedQzGMAUSpn0/EhnvDQB9/yHvGgJJEK5KveK94v7LfN35GRIlWciR3MUgn+sNzw3sb5kClZEkhQhQCXhScD6NMZvYYZRpRGe0LkQQYePCe8W4xEPHeMyYnUXrPJGhCCCESgQRNCCFEIpCgCSGESAQSNCGEEIlAgiaEECIRSNCEEEIkAgmaEEKIRCBBE0IIkQgkaEIIIRKBBE0IIUQikKAJIYRIBBI0IYQQiUCCJoQQIhFI0IQQQiQCCZoQQohEIEETQgiRAIz5f3MhE7xZR+w1AAAAAElFTkSuQmCC;" parent="1" vertex="1">
          <mxGeometry x="257.28" y="-133.5" width="126.44" height="87" as="geometry" />
        </mxCell>
        <mxCell id="Ns4UWQavqec5QjSnQfz8-81" value="" style="shape=image;verticalLabelPosition=bottom;labelBackgroundColor=default;verticalAlign=top;aspect=fixed;imageAspect=0;image=https://upload.wikimedia.org/wikipedia/commons/thumb/e/e9/Jenkins_logo.svg/1200px-Jenkins_logo.svg.png;" parent="1" vertex="1">
          <mxGeometry x="502.38" y="-579" width="36.21" height="50" as="geometry" />
        </mxCell>
        <mxCell id="Ns4UWQavqec5QjSnQfz8-86" value="" style="group" parent="1" vertex="1" connectable="0">
          <mxGeometry x="-430" y="-254" width="97.48000000000002" height="30" as="geometry" />
        </mxCell>
        <mxCell id="Ns4UWQavqec5QjSnQfz8-87" value="&lt;div&gt;MySQL&lt;/div&gt;" style="text;html=1;align=center;verticalAlign=middle;whiteSpace=wrap;rounded=0;fontSize=16;" parent="Ns4UWQavqec5QjSnQfz8-86" vertex="1">
          <mxGeometry x="13" width="84.48" height="30" as="geometry" />
        </mxCell>
        <mxCell id="Ns4UWQavqec5QjSnQfz8-88" value="" style="shape=waypoint;sketch=0;fillStyle=solid;size=6;pointerEvents=1;points=[];fillColor=none;resizable=0;rotatable=0;perimeter=centerPerimeter;snapToPoint=1;" parent="Ns4UWQavqec5QjSnQfz8-86" vertex="1">
          <mxGeometry y="5" width="20" height="20" as="geometry" />
        </mxCell>
        <mxCell id="Ns4UWQavqec5QjSnQfz8-89" value="3. Test 배포 전 정적 코드 분석(embold)" style="text;html=1;align=center;verticalAlign=middle;whiteSpace=wrap;rounded=0;fontSize=16;fontColor=#000000;" parent="1" vertex="1">
          <mxGeometry x="20.17" y="-413.5" width="296" height="30" as="geometry" />
        </mxCell>
      </root>
    </mxGraphModel>
  </diagram>
</mxfile>
